<svg id="Top_Handle" data-name="Top Handle" xmlns="http://www.w3.org/2000/svg" viewBox="0 0 1920 1500">
  <animate attributeName="viewBox" values="-10000000 -10000000 20001920 20001500; -10000000 -10000000 20001920 20001500; -10000000 -10000000 20001920 20001500; -10000000 -10000000 20001920 20001500; 0 0 1920 1500; 150 150 1620 1200; 0 0 1920 1500" dur="1.2s" repeatCount="once" />
  <path d="M760.427,480.07406s-51.64162-200.88-15.61519-345.26724c0,0-140.72788,156.80363-149.73467,352.82191Z" transform="translate(0 -0.04199)" style="fill: #fff"/>
  <path d="M574.23218,504.69972c15.2712-202.27948,176.16758-382.79958,176.16758-382.79958-51.90753,205.72527,36.71308,371.1158,36.71308,371.1158l-22.04506,2.20992c-61.58831-193.8952-26.23148-349.41233-26.23148-349.41233C611.09842,322.59363,592.85015,503.65476,592.85015,503.65476Z" transform="translate(0 -0.04199)" style="fill: #231f20"/>
  <polygon points="595.077 487.587 585.732 562.359 788.852 552.779 760.427 480.032 689.254 303.646 595.077 487.587" style="fill: #fff"/>
  <polygon points="0 0 43.987 0 0 44.114 0 0" style="fill: none"/>
</svg>
