<svg id="Bottom_Handle" data-name="Bottom Handle" xmlns="http://www.w3.org/2000/svg" viewBox="0 0 1920 1500">
  <animate attributeName="viewBox" values="-10000000 -10000000 20001920 20001500; -10000000 -10000000 20001920 20001500; -10000000 -10000000 20001920 20001500; -10000000 -10000000 20001920 20001500; 0 0 1920 1500; 150 150 1620 1200; 0 0 1920 1500" dur="1.2s" repeatCount="once" />
  <path d="M1228.23156,978.05893s21.67731,158.38141-37.58026,347.73316c0,0,146.58739-29.49,219.05368-338.10742Z" transform="translate(0 -0.04199)" style="fill: #fff"/>
  <path d="M1223.15107,960.30776s49.77209,132.47156-27.55339,361.61037c0,0,181.69445-84.26406,202.98751-354.12421l24.21962.91943s-29.17465,290.36221-239.15945,364.14065c0,0,78.043-218.00227,17.73927-372.54624Z" transform="translate(0 -0.04199)" style="fill: #231f20"/>
  <polygon points="0 0 0 44.114 43.987 0 0 0" style="fill: none"/>
  <line x1="1223.15107" y1="960.26577" x2="1398.58519" y2="967.75193" style="fill: none"/>
  <path d="M1228.23156,978.05893" transform="translate(0 -0.04199)" style="fill: #fff"/>
  <polygon points="1228.232 978.017 1210.047 908.633 1409.705 869.02 1396.769 986.957 1325.253 1058.169 1228.232 978.017" style="fill: #fff"/>
</svg>
