<svg xmlns="http://www.w3.org/2000/svg" viewBox="0 4 1919 1924">
  <defs>
    <style type="text/css"><![CDATA[
      .panda-eye {
        animation: blink 12s infinite step-end;
      }

      /* used by irises, where blinking is achieved through the movement of a blocking black object below */
      @keyframes blink {
          0% { opacity: 0 }
          11% { opacity: 0 }
          11.5% { opacity: 1 }
          12% { opacity: 0 }
          18% { opacity: 0 }
          18.5% { opacity: 1 }
          19% { opacity: 0 }
          35% { opacity: 0 }
          35.5% { opacity: 1 }
          36% { opacity: 0 }
          51% { opacity: 0 }
          51.5% { opacity: 1 }
          52% { opacity: 0 }
          59% { opacity: 0 }
          59.5% { opacity: 1 }
          60% { opacity: 0 }
          75% { opacity: 0 }
          75.5% { opacity: 1 }
          76% { opacity: 0 }
          94% { opacity: 0 }
          94.5% { opacity: 1 }
          95% { opacity: 0 }
          100% { opacity: 0 }
      }
    ]]></style>
  </defs>
  <g id="Panda_Background" data-name="Panda Background">
    <polygon points="951.071 520.796 938.661 541.913 942.972 558.719 964.339 563.423 971.671 562.946 990.952 547.359 988.886 540.526 974.357 520.796 951.071 520.796" style="fill: #282828"/>
    <polygon points="990.952 547.359 977.904 548.804 971.671 562.946 989.538 562.824 993.129 554.25 990.952 547.359" style="fill: #0a0a0a"/>
    <polygon points="964.339 563.423 954.297 553.743 942.972 558.719 950.083 564.708 964.339 563.423" style="fill: #0a0a0a"/>
    <polygon points="962.726 498.699 968.803 499.605 972.3 504.642 966.597 503.671 962.726 498.699" style="fill: #1c1c1c"/>
    <polygon points="935.02 514.27 944.198 522.055 951.727 539.941 937.726 531.105 935.02 514.27" style="fill: #1c1c1c"/>
    <polygon points="973.966 523.488 984.255 527.485 990.952 537.331 981.311 534.612 973.966 523.488" style="fill: #1c1c1c"/>
    <circle cx="951.43617" cy="490.39094" r="1.81206" style="fill: #fff"/>
    <circle cx="981.34229" cy="488.61479" r="1.77614" style="fill: #fff"/>
    <polygon points="953.598 492.488 973.89 511.481 958.75 507.74 953.598 492.488" style="fill: #e5e5e5"/>
    <polygon points="955.059 521.78 966.467 517.143 972.3 521.78 964.807 526.65 955.059 521.78" style="fill: #e5e5e5"/>
    <polygon points="973.89 511.481 979.566 510.159 983.404 515.292 977.432 515.292 973.89 511.481" style="fill: #f4f4f4"/>
    <polygon points="941.1 470.743 938.23 481.161 946.055 482.239 945.505 475.84 941.1 470.743" style="fill: #f4f4f4"/>
    <polygon points="956.546 489.655 964.339 483.487 973.117 487.505 964.029 490.25 956.546 489.655" style="fill: #f4f4f4"/>
    <polygon points="951.858 502.968 962.726 510.159 973.89 511.481 964.75 515.962 952.373 511.024 951.858 502.968" style="fill: #c1c1c1"/>
    <polyline points="973.89 511.481 975.716 505.382 980.533 500.002 982.4 508.069 977.68 511.481 974.357 511.481" style="fill: #e5e5e5"/>
  </g>
  <g id="Panda">
    <g>
      <path d="M990.86,478.59c5.6,14.02.23,23.89-5.66,29.9a37.8412,37.8412,0,0,1-3.53,3.16,29.48552,29.48552,0,0,1-9.38-4.27,9.87862,9.87862,0,0,0,5.61-8.67,23.27893,23.27893,0,0,0,.03-2.35h.02c7.25,5.83,9.15-2.66,9.15-2.66s2.62-14.34-5.33-18.6c-11.47-6.14-11.24,8.76-11.24,8.76a17.47852,17.47852,0,0,0-8.37-1.08,20.58028,20.58028,0,0,0-8.2,3.23s2.4-8.16-2.88-9.61a7.6592,7.6592,0,0,0-7.61,2.19,18.259,18.259,0,0,1-4.79-11.48v-.01a33.75194,33.75194,0,0,1,4.73-5.3c.46-.41.94-.82,1.44-1.21,6.28-4.92,18.99-5.06,18.99-5.06.11,0,6.54.02,13.65,5.05a35.603,35.603,0,0,1,10.3,11.65A48.93988,48.93988,0,0,1,990.86,478.59Z" transform="translate(2.58485 3.64439)" style="fill: #f4f4f4"/>
      <path d="M989.92,520.63c.89,5.37.28,9.93-1.23,13.06a47.88688,47.88688,0,0,1-17.35-13.9,12.46622,12.46622,0,0,1,.04-2.6,26.72214,26.72214,0,0,0,3.98-1.51,35.10381,35.10381,0,0,0,6.31-4.03,37.8412,37.8412,0,0,0,3.53-3.16S988.51,512.08,989.92,520.63Z" transform="translate(2.58485 3.64439)" style="fill: #1c1c1c"/>
      <path d="M988.35,543.7a12.00279,12.00279,0,0,1,2.19,6.91,12.414,12.414,0,0,1-12.58,12.25,12.71415,12.71415,0,0,1-8.87-3.56c8.31-1.14,11.73-3.95,11.73-3.95S988.72,551.74,988.35,543.7Z" transform="translate(2.58485 3.64439)" style="fill: #0a0a0a"/>
      <path d="M988.35,543.7c.37,8.04-7.53,11.65-7.53,11.65s-3.42,2.81-11.73,3.95a12.00057,12.00057,0,0,1-3.71-8.29c-.01-.13-.01-.27-.01-.4a12.431,12.431,0,0,1,12.59-12.26,13.96674,13.96674,0,0,1,2.06.16A12.62581,12.62581,0,0,1,988.35,543.7Z" transform="translate(2.58485 3.64439)" style="fill: #0a0a0a"/>
      <path d="M987.01,462.04a8.86218,8.86218,0,0,1,.79,10.18l-.01.01a35.603,35.603,0,0,0-10.3-11.65S982.95,456.72,987.01,462.04Z" transform="translate(2.58485 3.64439)" style="fill: #282828"/>
      <path d="M988.35,543.7a12.62581,12.62581,0,0,0-8.33-5.19l.04-.23a7.64087,7.64087,0,0,0,5.14-.65,6.42433,6.42433,0,0,0,1.1-.74A15.76148,15.76148,0,0,1,988.35,543.7Z" transform="translate(2.58485 3.64439)" style="fill: #282828"/>
      <path d="M981.77,475.1c7.95,4.26,5.33,18.6,5.33,18.6s-1.9,8.49-9.15,2.66h-.02a17.5259,17.5259,0,0,0-.95-5.63h.01s1.81,1.02,2.94.39a5.96468,5.96468,0,0,0,2.81-4.33s.72-5.49-3.84-6.79c-3.32-.95-3.8,2.55-3.8,4.67v.03a5.486,5.486,0,0,0,.08,1.5,5.809,5.809,0,0,0,.63,1.77l-.14.09a11.098,11.098,0,0,0-5.14-4.2S970.3,468.96,981.77,475.1Z" transform="translate(2.58485 3.64439)" style="fill: #1c1c1c"/>
      <path d="M986.3,536.89a6.42433,6.42433,0,0,1-1.1.74,7.64087,7.64087,0,0,1-5.14.65c-3.04-.67-6.09-3.25-7.3-8.95a63.08229,63.08229,0,0,1-1.42-9.54,47.88688,47.88688,0,0,0,17.35,13.9A9.25893,9.25893,0,0,1,986.3,536.89Z" transform="translate(2.58485 3.64439)" style="fill: #0a0a0a"/>
      <path class="panda-eye" d="M978.9,480c4.56,1.3,3.84,6.79,3.84,6.79a5.96468,5.96468,0,0,1-2.81,4.33c-1.13.63-2.94-.39-2.94-.39h-.01a11.85484,11.85484,0,0,0-1.31-2.67l.14-.09a3.06153,3.06153,0,0,0,3.04,1.81c1.61-.29,2.58-2.37,2.17-4.65-.42-2.27-2.06-3.87-3.67-3.58-1.24.23-2.1,1.51-2.25,3.12C975.1,482.55,975.58,479.05,978.9,480Z" transform="translate(2.58485 3.64439)"/>
      <path d="M981.02,485.13c.41,2.28-.56,4.36-2.17,4.65a3.06153,3.06153,0,0,1-3.04-1.81,5.809,5.809,0,0,1-.63-1.77,13.19127,13.19127,0,0,1-.08-1.5v-.03c.15-1.61,1.01-2.89,2.25-3.12C978.96,481.26,980.6,482.86,981.02,485.13Zm-1-.2a1.39,1.39,0,1,0-1.39,1.4A1.39995,1.39995,0,0,0,980.02,484.93Z" transform="translate(2.58485 3.64439)"/>
      <path d="M980.06,538.28l-.04.23a13.96674,13.96674,0,0,0-2.06-.16,12.431,12.431,0,0,0-12.59,12.26c0,.13,0,.27.01.4l-.34.01a12.59578,12.59578,0,0,0-25.15.63,11.80818,11.80818,0,0,0,.5,3.43c-8.24-6.19-4.31-16.81-4.31-16.81a17.256,17.256,0,0,0,7.33,2.05,7.2395,7.2395,0,0,0,5.73-4.02,11.279,11.279,0,0,0,1.1-4.54,43.38158,43.38158,0,0,0-1.75-14.6q1.995.585,3.9.96l-.08.37s-6.25,20.68,9.85,19.97c16.11-.7,7.1-20.69,7.1-20.69.77-.19,1.48-.39,2.12-.58a12.46622,12.46622,0,0,0-.04,2.6,63.08229,63.08229,0,0,0,1.42,9.54C973.97,535.03,977.02,537.61,980.06,538.28Z" transform="translate(2.58485 3.64439)" style="fill: #282828"/>
      <path class="panda-eye" d="M978.63,483.54a1.395,1.395,0,1,1-1.39,1.39A1.39995,1.39995,0,0,1,978.63,483.54Z" transform="translate(2.58485 3.64439)"/>
      <path d="M977.93,496.36a23.27893,23.27893,0,0,1-.03,2.35,9.87862,9.87862,0,0,1-5.61,8.67c-.33.17-.66.32-.99.46-16.38-5.48-20.17-18.57-20.29-18.99v-.01a12.92889,12.92889,0,0,1,2.95-2.83,20.58028,20.58028,0,0,1,8.2-3.23,17.47852,17.47852,0,0,1,8.37,1.08,11.098,11.098,0,0,1,5.14,4.2,11.85484,11.85484,0,0,1,1.31,2.67A17.5259,17.5259,0,0,1,977.93,496.36Zm-6.58,1.63c.4-3.86-3.43-4.29-3.43-4.29h-5.14a3.71683,3.71683,0,0,0-2.43,1.07,2.83088,2.83088,0,0,0-.55,2.45c.83,5.19,6.11,5.59,6.11,5.59a8.66369,8.66369,0,0,0,4.37-2.38A4.34766,4.34766,0,0,0,971.35,497.99Z" transform="translate(2.58485 3.64439)" style="fill: #e5e5e5"/>
      <path d="M972.29,507.38a29.48552,29.48552,0,0,0,9.38,4.27,35.10381,35.10381,0,0,1-6.31,4.03,26.72214,26.72214,0,0,1-3.98,1.51c-.64.19-1.35.39-2.12.58a39.98933,39.98933,0,0,1-16.87.35q-1.905-.375-3.9-.96v-.01a41.93479,41.93479,0,0,1-4.13-1.47,19.47771,19.47771,0,0,1-10.02-9.17c-5.77-10.98-2.07-26.04-2.07-26.04s.24-.95.78-2.49a43.71348,43.71348,0,0,1,5.63-10.87,18.259,18.259,0,0,0,4.79,11.48,18.36535,18.36535,0,0,0-3.96,6.06s-3.82,10.78,4.97,15.78a3.42478,3.42478,0,0,0,4.79-1.11h.01c2.52,11.46,15.21,9.86,15.21,9.86a18.63228,18.63228,0,0,0,6.81-1.34C971.63,507.7,971.96,507.55,972.29,507.38Z" transform="translate(2.58485 3.64439)" style="fill: #e5e5e5"/>
      <path d="M967.92,493.7s3.83.43,3.43,4.29a4.34766,4.34766,0,0,1-1.07,2.44c-6.8-1.96-9.93-5.66-9.93-5.66a3.71683,3.71683,0,0,1,2.43-1.07Z" transform="translate(2.58485 3.64439)" style="fill: #1c1c1c"/>
      <path d="M969.26,517.77s9.01,19.99-7.1,20.69c-16.1.71-9.85-19.97-9.85-19.97l.08-.37A39.98933,39.98933,0,0,0,969.26,517.77Z" transform="translate(2.58485 3.64439)" style="fill: #d3d3d3"/>
      <path d="M965.38,551.01a12.00057,12.00057,0,0,0,3.71,8.29,53.5897,53.5897,0,0,1-7.19.48,12.04807,12.04807,0,0,0,3.16-8.13c0-.21-.01-.42-.02-.63Z" transform="translate(2.58485 3.64439)" style="fill: #282828"/>
      <path d="M970.28,500.43a8.66369,8.66369,0,0,1-4.37,2.38s-5.28-.4-6.11-5.59a2.83088,2.83088,0,0,1,.55-2.45S963.48,498.47,970.28,500.43Z" transform="translate(2.58485 3.64439)" style="fill: #0a0a0a"/>
      <path d="M965.04,551.02c.01.21.02.42.02.63a12.04807,12.04807,0,0,1-3.16,8.13,75.79853,75.79853,0,0,1-10.78-.78c-4.88-.68-8.32-2.11-10.73-3.92a11.80818,11.80818,0,0,1-.5-3.43,12.59578,12.59578,0,0,1,25.15-.63Z" transform="translate(2.58485 3.64439)" style="fill: #0a0a0a"/>
      <path d="M971.3,507.84a18.63228,18.63228,0,0,1-6.81,1.34s-12.69,1.6-15.21-9.86a16.68106,16.68106,0,0,1-.38-2.49,12.89754,12.89754,0,0,1,.28-4.06,10.738,10.738,0,0,1,.87-2.37,4.47341,4.47341,0,0,0,.45-.81c.16-.26.33-.5.51-.74C951.13,489.27,954.92,502.36,971.3,507.84Z" transform="translate(2.58485 3.64439)" style="fill: #c1c1c1"/>
      <path d="M951.12,559a75.79853,75.79853,0,0,0,10.78.78,12.731,12.731,0,0,1-9.43,4.12,12.53062,12.53062,0,0,1-12.08-8.82C942.8,556.89,946.24,558.32,951.12,559Z" transform="translate(2.58485 3.64439)" style="fill: #0a0a0a"/>
      <path d="M951.08,476.4c5.28,1.45,2.88,9.61,2.88,9.61a12.92889,12.92889,0,0,0-2.95,2.83s2.73-4.2-1.24-6.63c-3.96-2.41-6.04,4.4-6.04,4.4s-1.51,4.29,2.01,6.16c2.25,1.19,3.44,0,3.44,0a12.89754,12.89754,0,0,0-.28,4.06,16.68106,16.68106,0,0,0,.38,2.49h-.01a3.42478,3.42478,0,0,1-4.79,1.11c-8.79-5-4.97-15.78-4.97-15.78a18.36535,18.36535,0,0,1,3.96-6.06A7.6592,7.6592,0,0,1,951.08,476.4Z" transform="translate(2.58485 3.64439)" style="fill: #1c1c1c"/>
      <path class="panda-eye" d="M949.77,482.21c3.97,2.43,1.24,6.63,1.24,6.63v.01c-.18.24-.35.48-.51.74a5.49336,5.49336,0,0,0,.42-1.39c.37-2.28-.63-4.34-2.25-4.61-1.61-.27-3.23,1.36-3.61,3.64s.62,4.34,2.24,4.61a2.87732,2.87732,0,0,0,2.75-1.44,10.738,10.738,0,0,0-.87,2.37s-1.19,1.19-3.44,0c-3.52-1.87-2.01-6.16-2.01-6.16S945.81,479.8,949.77,482.21Z" transform="translate(2.58485 3.64439)"/>
      <path d="M948.67,483.59c1.62.27,2.62,2.33,2.25,4.61a5.49336,5.49336,0,0,1-.42,1.39q-.24.39-.45.81a2.87732,2.87732,0,0,1-2.75,1.44c-1.62-.27-2.62-2.33-2.24-4.61S947.06,483.32,948.67,483.59Zm1.58,3.02a1.39,1.39,0,1,0-1.39,1.39A1.40205,1.40205,0,0,0,950.25,486.61Z" transform="translate(2.58485 3.64439)"/>
      <path d="M948.49,517.16a43.38158,43.38158,0,0,1,1.75,14.6,11.279,11.279,0,0,1-1.1,4.54c-9.4-8.17-16.7-25.67-16.7-25.67h-.01a35.05476,35.05476,0,0,1,1.91-4.12,19.47771,19.47771,0,0,0,10.02,9.17,41.93479,41.93479,0,0,0,4.13,1.47Z" transform="translate(2.58485 3.64439)" style="fill: #1c1c1c"/>
      <path class="panda-eye" d="M948.86,485.21a1.395,1.395,0,1,1-1.39,1.4A1.40205,1.40205,0,0,1,948.86,485.21Z" transform="translate(2.58485 3.64439)"/>
      <path d="M949.14,536.3a7.2395,7.2395,0,0,1-5.73,4.02,17.256,17.256,0,0,1-7.33-2.05,12.19114,12.19114,0,0,1-6.36-9.62c-.91-7.1,1.06-13.88,2.71-18.02h.01S939.74,528.13,949.14,536.3Z" transform="translate(2.58485 3.64439)" style="fill: #0a0a0a"/>
      <path d="M943.41,461.8a33.75194,33.75194,0,0,0-4.73,5.3v.01a43.71348,43.71348,0,0,0-5.63,10.87s-8.91-8.38-3.33-15.86C936.04,453.64,943.41,461.8,943.41,461.8Z" transform="translate(2.58485 3.64439)" style="fill: #1e1e1e"/>
    </g>
    <polygon points="0 0 4.832 0 0 5.766 0 0" style="fill: none"/>
  </g>
</svg>
