<svg xmlns="http://www.w3.org/2000/svg" viewBox="6 11 1918 1923">
    <g id="Background">
        <rect x="6.55793" y="6.72236" width="1924" height="1930" style="fill:#bbffd0"/>
        <rect x="1057.5444" y="2.1584" width="6.4752" height="407.93767" style="fill:#759989"/>
        <rect x="1257.55617" width="6.4752" height="407.93767" style="fill:#759989"/>
        <rect x="876.23877" y="337.42992" width="581.32917" height="7.19467" style="fill:#759989"/>
        <rect x="5.49629" y="6.48777" width="824" height="800" style="fill:#9cf2d8"/>
        <rect x="1494.55793" y="6.72236" width="436" height="800" style="fill:#9cf2d8"/>
        <path d="M727.39558-3.82831s37.64,411.61206,60.70975,712.73239l78.92266-149.346s3.64259-308.4055,49.782-563.38642Z"
              transform="translate(7.55793 9.72236)" style="fill:#4cbfa9"/>
        <path d="M1384.275-3.82831s29.14068,120.20529,54.63877,609.52583l88.63623-48.5678s21.85551-341.18876,46.13941-560.958Z"
              transform="translate(7.55793 9.72236)" style="fill:#4cbfa9"/>
        <path d="M872.69219,406.81482C878.79006,294.338,891.30951,137.09534,916.81-3.82831H727.39558s4.34615,47.52722,10.98993,122.09656c0,0,43.79505,121.6198,72.54405,180.22352A1083.53278,1083.53278,0,0,0,872.69219,406.81482Z"
              transform="translate(7.55793 9.72236)" style="fill:#62ccae"/>
        <path d="M1429.24528,439.01844C1406.58585,88.20386,1384.275-3.82831,1384.275-3.82831h189.41441c-4.48168,40.55916-8.88064,85.25386-13.07478,131.1762,0,0-21.67436,107.68231-64.91288,196.63014S1429.24528,439.01844,1429.24528,439.01844Z"
              transform="translate(7.55793 9.72236)" style="fill:#62ccae"/>
        <polygon points="1721.362 755.433 1623.967 566.653 1581.354 590.702 1557.727 813.047 1721.362 755.433"
                 style="fill:#85ccb2"/>
        <path d="M744.57973,364.646s-14.825,245.2306-59.30009,399.65793L805.733,755.0383,787.20168,370.2054Z"
              transform="translate(7.55793 9.72236)" style="fill:#84d3b9"/>
        <path d="M663.30962,134.16635S435.302,211.586,336.178,217.62743l313.035,32.66842Z"
              transform="translate(7.55793 9.72236)" style="fill:#85ccb2"/>
        <polygon points="258.368 555.336 256.815 772.747 644.273 783.618 673.779 542.912 258.368 555.336"
                 style="fill:#8dd8c0"/>
        <path d="M244.82049,632.43017s220.93176,16.02614,397.79165,106.45935L663.78953,535.701l-419.5414,3.43417Z"
              transform="translate(7.55793 9.72236)" style="fill:#7dbaa5"/>
        <polygon points="44.058 148.472 4.582 153.463 4.582 785.316 209.48 756.191 44.058 148.472"
                 style="fill:#85ccb2"/>
        <rect x="5.11581" y="755.12134" width="1926.95486" height="1185.1625" style="fill:#7cd8b7"/>
        <polygon
                points="0 1742.473 760.55 744.89 1277.265 743.588 1287.532 768.615 1229.778 1937.174 3.465 1936.533 0 1742.473"
                style="fill:#659b87"/>
        <polygon points="1721.362 755.433 1560.262 755.433 1934.511 1839.966 1934.511 1174.866 1721.362 755.433"
                 style="fill:#70c4a5"/>
        <path d="M1361.95347,760.14708l3.45814-10.37445,26.80066-.43226,4.15743,13.4386v8.81154s76.36668,5.74085,145.65742,0l-1.6021-8.81154,2.13613-13.0838,27.90321.534,2.00263,10.54715,352.78256,1042.91888-.73682,126.86625-487.44161-1.9834Z"
              transform="translate(7.55793 9.72236)" style="fill:#659b87"/>
        <polygon points="668.084 753.642 222.389 753.642 17.921 920.777 44.341 977.638 478.549 995.443 668.084 753.642"
                 style="fill:#70c4a5"/>
        <polygon points="5.116 755.121 179.491 755.121 4.87 840.115 5.116 755.121" style="fill:#5e8e7b"/>
        <path d="M93.7108,762.47975l-96.6427,44.723-.33765,789.95243,675.6847-830.36952-22.32166-19.0324-24.45281,12.83772L441.09841,933.4417S265.23206,948.24918,30.69586,922.03356l234.06806-161.507-43.53665-14.51222Z"
              transform="translate(7.55793 9.72236)" style="fill:#659b87"/>
        <polygon points="611.841 772.699 465.879 926.798 415.581 926.305 570.074 772.731 611.841 772.699"
                 style="fill:#659b87"/>
        <path d="M547.25274,751.54916l-8.50355,7.23645s14.75771-.49329,1.166,9.5c-16.11339,11.84731-26,19-26,19s-7,7.54918-20.5,7.54918h-72.5s-25.70227.85386-10-10.54918c8.09147-5.876,28.5-20.61,28.5-20.61s5-5.39,15.75-4.89l8.30882-5.87221Z"
              transform="translate(7.55793 9.72236)" style="fill:#659b87"/>
        <polygon
                points="1621.326 754.982 1628.993 761.538 1679.763 874.008 1651.473 874.008 1608.353 764.318 1609.533 756.074 1621.326 754.982"
                style="fill:#659b87"/>
        <polygon
                points="1646.749 757.397 1645.913 764.318 1682.473 840.008 1711.303 840.008 1670.493 757.758 1662.782 755.128 1646.749 757.397"
                style="fill:#659b87"/>
        <polygon
                points="1930.503 822.148 1930.503 823.148 1879.603 778.228 1836.183 778.228 1823.513 761.538 1911.303 761.538 1930.503 770.028 1930.503 778.008 1899.473 778.008 1930.503 802.248 1930.503 822.148"
                style="fill:#659b87"/>
        <polygon
                points="1733.123 798.868 1748.473 829.008 1718.473 828.008 1684.473 761.008 1714.113 761.538 1724.473 781.888 1796.543 781.848 1783.473 761.008 1813.473 761.008 1861.473 828.008 1825.473 828.008 1807.203 798.868 1733.123 798.868"
                style="fill:#659b87"/>
        <path d="M1255.88872,575.99019s-1.13285-70.237,29.83184-212.2214a390.09542,390.09542,0,0,0-75.90125-13.59425l-7.93,57.398s-154.0682-54.377-374.5972-8.3076L820.495,348.66407s-44.9646,2.50968-75.91527,15.98194c0,0,24.18159,81.44354,22.67111,236.6446l79.29981-12.08378-4.909-38.517-9.81807-117.06163s32.09754-8.3076,80.055-12.839l8.3076,120.83781,18.50329-1.13285-9.06283-121.21543,35.11848-2.64333,6.04189,124.614,14.72711,2.64333L979.84986,415.8801l27.56612-1.13286,1.13286,160.1101,9.44045.37761,3.39857-160.48771,27.56612,1.13286-6.41951,126.50208,13.97187-2.26571,8.3076-123.85875,39.27229,3.77618L1092.00245,543.515l15.86,1.88809,15.86-121.97066a685.3067,685.3067,0,0,1,73.25792,14.34949s-9.81807,74.76839-18.12567,138.58586l47.95751,38.13943Z"
              transform="translate(7.55793 9.72236)" style="fill:#56a883"/>
        <polygon points="1050.858 537.019 1050.092 552.105 1064.064 549.839 1064.676 540.723 1050.858 537.019"
                 style="fill:#4d9372"/>
        <polygon points="1015.684 524.82 1016.107 584.58 1025.547 584.957 1026.73 529.114 1015.684 524.82"
                 style="fill:#4d9372"/>
        <polygon points="976.152 505.737 978.345 550.972 993.072 553.615 991.31 513.802 976.152 505.737"
                 style="fill:#4d9372"/>
        <polygon points="922.147 469.934 927.744 551.349 946.247 550.216 941.299 484.038 922.147 469.934"
                 style="fill:#4d9372"/>
        <path d="M864.18992,392.362q-18.11162,2.99426-36.89779,6.90293L820.495,348.66407s-44.9646,2.50968-75.91527,15.98194c0,0,24.18159,81.44354,22.67111,236.6446l79.29981-12.08378-4.909-38.517-9.81807-117.06163s20.70689-5.35943,53.707-9.817"
              transform="translate(7.55793 9.72236)" style="fill:#4d9372"/>
        <path d="M807.59366,559.751s-4.92419,7.84223-2.18853,23.89145c0,0,99.57814,4.9242,200.43292-11.85454,0,0,3.10042-9.11887-.18238-31.36893C1005.65567,540.419,936.16983,521.99884,807.59366,559.751Z"
              transform="translate(7.55793 9.72236)" style="fill:#a9dbbf"/>
        <path d="M1022.61679,540.96611s-4.9242,17.50824-.91189,31.00418c0,0,85.71744,21.1558,193.685,15.68447a46.69721,46.69721,0,0,0-.72951-26.08S1087.17844,519.44556,1022.61679,540.96611Z"
              transform="translate(7.55793 9.72236)" style="fill:#a9dbbf"/>
        <path d="M1007.08217,562.66754a36.90343,36.90343,0,0,1-1.24412,9.12037c-100.85478,16.77874-200.43292,11.85454-200.43292,11.85454a49.73622,49.73622,0,0,1-.46688-14.94423s46.064,2.411,107.33478-.5978C974.40892,565.04911,1007.08217,562.66754,1007.08217,562.66754Z"
              transform="translate(7.55793 9.72236)" style="fill:#6c8776"/>
        <path d="M1216.76328,579.44445a39.93461,39.93461,0,0,1-1.37343,8.21031c-107.96751,5.47133-193.685-15.68447-193.685-15.68447a42.02911,42.02911,0,0,1-1.56209-11.01947s37.31186,3.94413,98.78753,9.92353S1216.76328,579.44445,1216.76328,579.44445Z"
              transform="translate(7.55793 9.72236)" style="fill:#6c8776"/>
        <path d="M721.35354,589.92025s12.25151,58.98874,13.159,170.6136c0,0,225.15046,14.41461,545.46187-1.641,0,0-2.31166-91.83347,21.7376-161.25869a458.41256,458.41256,0,0,1-55.81243-33.57821l-7.71391,27.67934S1009.94463,547.72061,788.51,586.74393l-8.62143-24.95677A380.45435,380.45435,0,0,0,721.35354,589.92025Z"
              transform="translate(7.55793 9.72236)" style="fill:#4c7254"/>
        <path d="M1176.69323,763.18482c33.12754-1.09418,67.61443-2.50418,103.28121-4.292,0,0-2.31166-91.83347,21.7376-161.25869a458.41256,458.41256,0,0,1-55.81243-33.57821l-7.71391,27.67934S1009.94463,547.72061,788.51,586.74393l-8.62143-24.95677s-13.7256,4.99112-31.46237,13.56549c0,0,51.26144,46.1298,193.0225,108.57217S1176.69323,763.18482,1176.69323,763.18482Z"
              transform="translate(7.55793 9.72236)" style="fill:#4e8763"/>
        <path d="M1396.59114,749.6428s73.16967-7.24452,143.683.24148l.15085,12.89469a291.61226,291.61226,0,0,0,32.042-2.00262s4.99572-107.96867,23.107-175.34273l-20.52615-14.73053-219.509,5.07117-12.31569,8.93491s15.96854,87.41669,18.73032,175.43791c0,0,20.21543,1.75529,34.41623,2.63189Z"
              transform="translate(7.55793 9.72236)" style="fill:#47936f"/>
        <path d="M1377.20417,508.54979s2.95343-13.78268-9.42286-21.37722c0,0,6.04751-15.04844,36.42567-7.59454s41.62932,3.23471,41.62932,3.23471a33.94772,33.94772,0,0,0-3.09407,22.92426c2.81279,13.07948-46.41107,10.12605-46.41107,10.12605Z"
              transform="translate(7.55793 9.72236)" style="fill:#acd1c4"/>
        <path d="M1355.363,670.86755c-5.46507-49.61881-12.13981-86.15838-12.13981-86.15838l12.31569-8.93491,163.38252-3.77451s-19.6225,32.47186-66.14841,62.27752C1405.85451,664.33439,1355.363,670.86755,1355.363,670.86755Z"
              transform="translate(7.55793 9.72236)" style="fill:#56a883"/>
        <path d="M1414.71758,481.8571c-3.21493-.598-6.71334-1.34733-10.5106-2.27907-30.37816-7.4539-36.42567,7.59454-36.42567,7.59454a20.43981,20.43981,0,0,1,5.80614,5.2381s7.42706-10.55476,18.04365-11.04529A218.81646,218.81646,0,0,1,1414.71758,481.8571Z"
              transform="translate(7.55793 9.72236)" style="fill:#d2f9ec"/>
        <path d="M1343.36421,511.7902c-.49459.074,1.94185,15.39608,9.29313,45.49472l124.13954-2.77407,2.63536-46.60434S1415.62868,500.97134,1343.36421,511.7902Z"
              transform="translate(7.55793 9.72236)" style="fill:#40d3a7"/>
        <path d="M1325.09169,556.7899s149.31455-12.4157,291.31711.14073l-10.82515,28.48561-270.33422-.46172Z"
              transform="translate(7.55793 9.72236)" style="fill:#467254"/>
        <path d="M1436.5368,505.7644a591.08124,591.08124,0,0,0-93.17259,6.0258c-.37324.05588.92273,8.79546,4.74051,26.01616,0,0,21.59851-2.44479,50.11059-12.17875C1426.84091,515.85489,1436.5368,505.7644,1436.5368,505.7644Z"
              transform="translate(7.55793 9.72236)" style="fill:#66ffd8"/>
        <path d="M1526.74886,585.28159l-191.49943-.32707-10.15774-28.16462a2061.94631,2061.94631,0,0,1,217.7601-4.3279s-1.25348,3.62607-7.61777,16.53144S1526.74886,585.28159,1526.74886,585.28159Z"
              transform="translate(7.55793 9.72236)" style="fill:#4e8763"/>
        <path d="M1386.33087,608.72492s4.49211,31.23085,7.27294,63.10342c0,0,85.99177-2.353,153.58729,1.71128,0,0,2.56692-30.803,7.27293-63.53124C1554.464,610.00838,1471.89482,605.73019,1386.33087,608.72492Z"
              transform="translate(7.55793 9.72236)" style="fill:#7abc97"/>
        <path d="M1394.24554,679.10127s1.49737,35.29513,2.353,60.32259c0,0,77.64929-3.85038,144.17526,2.1391,0,0,1.49737-30.1613,5.13384-61.17823A1224.0045,1224.0045,0,0,0,1394.24554,679.10127Z"
              transform="translate(7.55793 9.72236)" style="fill:#7abc97"/>
        <path d="M1459.62564,671.16356c-37.29655-.12124-66.02183.66478-66.02183.66478-2.78083-31.87257-7.27294-63.10342-7.27294-63.10342,31.27935-1.09477,62.15849-1.2176,88.74988-.9328,0,0-2.75345,20.7692-6.14061,34.42368A283.41007,283.41007,0,0,1,1459.62564,671.16356Z"
              transform="translate(7.55793 9.72236)" style="fill:#8bd1ad"/>
        <path d="M1418.77158,738.65805c-13.719.3466-22.173.76581-22.173.76581-.85563-25.02746-2.353-60.32259-2.353-60.32259,22.43606-1.205,43.74848-1.67117,62.92563-1.70817a240.03407,240.03407,0,0,1-15.52106,31.44743C1432.60217,723.84687,1418.77158,738.65805,1418.77158,738.65805Z"
              transform="translate(7.55793 9.72236)" style="fill:#8bd1ad"/>
        <polygon points="1457.507 692.675 1502.457 692.464 1500.975 705.447 1458.848 705.659 1457.507 692.675"
                 style="fill:#478461"/>
        <polygon points="1456.999 622.639 1504.255 622.639 1502.922 635.241 1458.453 635.725 1456.999 622.639"
                 style="fill:#478461"/>
        <path d="M1472.57588,625.76673l-21.6804.2363-1.454-13.0861h25.23063s-.12328,1.01222-.94517,6.55992S1472.57588,625.76673,1472.57588,625.76673Z"
              transform="translate(7.55793 9.72236)" style="fill:#62a57f"/>
        <path d="M1450.79166,691.63874l-.88957-8.61479,4.94307-.02328S1453.58307,686.26275,1450.79166,691.63874Z"
              transform="translate(7.55793 9.72236)" style="fill:#62a57f"/>
        <polygon points="63.085 254.609 341.003 233.869 656.771 260.018 665.736 543.787 69.603 559.194 63.085 254.609"
                 style="fill:#6dc6a3"/>
        <path d="M342.07544,229.67741S357.05658,505.89208,629.526,533.98171l-568.3468,9.36321L58.83836,246.063Z"
              transform="translate(7.55793 9.72236)" style="fill:#62af8f"/>
        <path d="M378.98513,237.13024s244.77628,23.312,265.02093,129.13636l2.76064-112.26582L386.65356,230.99549Z"
              transform="translate(7.55793 9.72236)" style="fill:#418260"/>
        <polygon points="573.828 295.381 560.833 410.417 632.79 416.674 632.309 292.012 591.878 288.161 573.828 295.381"
                 style="fill:#61af8e"/>
        <path d="M624.92738,327.95968l-.17634-45.67014L584.32,278.439l-18.04959,7.21983S592.24173,297.28623,624.92738,327.95968Z"
              transform="translate(7.55793 9.72236)" style="fill:#38684f"/>
        <path d="M36.50009,138.74946s13.74964,228.453,7.6255,401.04232l39.52852-7.23762S74.18954,392.25574,70.29236,259.75168c0,0,251.08963-50.66332,566.76106,3.89718,0,0,6.12414,127.4934,3.89718,269.462l36.18809-1.11348s-17.08009-15.113-13.82907-397.83107l-26.81294,14.79412s-2.67879,43.14216-1.00857,92.13526c0,0-231.71335-45.5673-566.866-10.29452,0,0-.55674-27.28024-7.79436-85.73792Z"
              transform="translate(7.55793 9.72236)" style="fill:#62a57f"/>
        <path d="M367.948,217.92014c-87.48895-1.203-106.31542-8.57383-299.34985,10.295,0,0-.53276-24.6942-7.77038-83.15188l-24.32769-6.31383s13.74964,228.453,7.6255,401.04232l39.52852-7.23762S74.18954,392.25574,70.29236,259.75168c0,0,122.49151-24.71558,303.92493-21.03066"
              transform="translate(7.55793 9.72236)" style="fill:#538c6b"/>
        <polygon points="1629.413 98.028 1655.965 523.738 1865.774 532.444 1896.244 77.134 1629.413 98.028"
                 style="fill:#569070"/>
        <path d="M1725.95973,517.23364l132.25591,5.4878L1888.6857,67.41166l-103.862,8.13275s5.1782,41.38086-11.59742,206.5158C1760.40884,408.232,1725.95973,517.23364,1725.95973,517.23364Z"
              transform="translate(7.55793 9.72236)" style="fill:#437758"/>
        <polygon points="1639.299 107.16 1886.23 90.102 1856.988 521.013 1668.947 514.515 1639.299 107.16"
                 style="fill:#d2f9ec"/>
        <path d="M1786.54083,509.11779l62.88918,2.17328L1878.67186,80.38l-75.23049,5.19684s14.32,63.40744,17.35645,199.61456S1786.54083,509.11779,1786.54083,509.11779Z"
              transform="translate(7.55793 9.72236)" style="fill:#caeade"/>
        <polygon points="108.96 515.148 119.562 538.201 138.671 537.215 123.137 512.805 108.96 515.148"
                 style="fill:#417555"/>
        <polygon points="343.689 507.011 353.305 532.654 371.551 532.407 356.017 506.641 343.689 507.011"
                 style="fill:#417555"/>
        <path d="M135.00783,526.38179l3.27041-22.37254-20.663,1.85819s-2.06715,7.57364,13.49743,21.62539Z"
              transform="translate(7.55793 9.72236)" style="fill:#5aa371"/>
        <path d="M349.591,498.286s-.52029,6.83812,13.97354,23.63611l7.13543-.74327,3.41906-23.11582Z"
              transform="translate(7.55793 9.72236)" style="fill:#5aa371"/>
        <path d="M22.69418,511.78217l211.50055-12.12259S211.755,437.24113,199.37452,355.47811c0,0-67.577-6.44819-167.65287-22.18176C31.72165,333.29635,28.11066,418.92827,22.69418,511.78217Z"
              transform="translate(7.55793 9.72236)" style="fill:#4e8763"/>
        <path d="M214.59224,351.6092,250.96,499.40165s144.69733-.77378,216.14324.51586c0,0,15.99151-99.56,35.07814-153.46686C502.1814,346.45065,368.0591,351.09334,214.59224,351.6092Z"
              transform="translate(7.55793 9.72236)" style="fill:#4e8763"/>
        <path d="M512.24058,389.26661s3.86891,49.26415,3.611,125.35277l157.33578,6.964s14.95979-64.48188,31.20922-115.80945C704.39656,405.774,598.90422,401.13128,512.24058,389.26661Z"
              transform="translate(7.55793 9.72236)" style="fill:#4e8763"/>
        <polygon points="96.085 543.214 101.951 537.347 164.913 534.485 176.217 542.069 96.085 543.214"
                 style="fill:#4e8763"/>
        <polygon points="334.766 531.48 316.45 540.495 434.932 538.062 406.027 530.335 334.766 531.48"
                 style="fill:#4e8763"/>
        <path d="M35.91,338.14615,195.27176,358.966s14.13693,76.59647,33.15753,136.99973L26.14263,506.7612S34.11072,404.71825,35.91,338.14615Z"
              transform="translate(7.55793 9.72236)" style="fill:#354c3b"/>
        <path d="M218.92763,354.68128s148.26365,1.64373,275.15893-1.97246a1269.363,1269.363,0,0,0-29.587,142.34625l-210.72506.65749S235.36485,417.14269,218.92763,354.68128Z"
              transform="translate(7.55793 9.72236)" style="fill:#354c3b"/>
        <path d="M518.08489,396.10306s2.30121,66.40633,2.63,116.7042c0,0,85.14476,11.506,149.24988,5.25991,0,0,12.49229-53.58531,27.94326-107.82811C697.908,410.23906,608.16081,404.65041,518.08489,396.10306Z"
              transform="translate(7.55793 9.72236)" style="fill:#354c3b"/>
        <path d="M35.2314,358.237c-2.581,65.18341-9.08877,148.52419-9.08877,148.52419L211.173,496.88664Z"
              transform="translate(7.55793 9.72236)" style="fill:#324938"/>
        <path d="M221.11933,471.21779C205.89755,416.5385,195.27176,358.966,195.27176,358.966L59.7134,341.256Z"
              transform="translate(7.55793 9.72236)" style="fill:#324938"/>
        <path d="M445.37667,495.11474l-191.60215.59782S239.53424,434.93708,224.91991,377.797Z"
              transform="translate(7.55793 9.72236)" style="fill:#324938"/>
        <path d="M466.51208,482.02565a1260.73852,1260.73852,0,0,1,27.57448-129.31683c-98.56511,2.80885-210.02241,2.44423-254.87668,2.14143Z"
              transform="translate(7.55793 9.72236)" style="fill:#324938"/>
        <path d="M542.18573,398.32391C623.499,405.60553,697.908,410.23906,697.908,410.23906c-10.468,36.74924-19.57788,73.19669-24.3651,92.88338Z"
              transform="translate(7.55793 9.72236)" style="fill:#324938"/>
        <path d="M518.58826,411.72152c.6969,22.6699,1.89618,65.83408,2.12658,101.08574,0,0,76.10712,10.28475,138.58639,6.1285Z"
              transform="translate(7.55793 9.72236)" style="fill:#324938"/>
        <path d="M495.54648,509.73705l-20.93664,18.56646,209.95894-.98758L679.03834,515.86S640.32531,521.588,495.54648,509.73705Z"
              transform="translate(7.55793 9.72236)" style="fill:#5aa371"/>
        <path d="M676.57727,527.35352l-201.96743.95,18.92107-16.77907s37.04209,6.5329,107.74318,11.44057S676.57727,527.35352,676.57727,527.35352Z"
              transform="translate(7.55793 9.72236)" style="fill:#417555"/>
        <path d="M8.68274,533.536S53.14366,663.78038,67.78961,774.14808c0,0,99.98348-15.21236,196.97431-13.62149,0,0-15.9922-98.83849-2.91546-208.68312,0,0,233.28907-16.21516,375.564-4.70763,0,0,9.93287,73.83816-11.77179,213.45509a259.12231,259.12231,0,0,1,46.77447,6.19468s-1.52622-119.74346,23.05806-244.234C695.47321,522.55157,670.36586,522.0285,8.68274,533.536Z"
              transform="translate(7.55793 9.72236)" style="fill:#427251"/>
        <path d="M675.3905,680.76092c2.936-44.15485,8.72091-100.67513,20.08271-158.20935,0,0-12.02229-.25047-238.67357,3.4082l25.97693,17.213c53.76869-.57048,108.904.26413,154.6359,3.963,0,0,5.27663,39.22494-.26569,114.55431Z"
              transform="translate(7.55793 9.72236)" style="fill:#4e8763"/>
        <path d="M260.86233,732.40505s-73.771-19.02109-147.02792-70.17242-91.65631-86.1415-91.65631-86.1415c14.32343,47.44605,36.16681,126.88439,45.61151,198.057,0,0,99.98348-15.21236,196.97431-13.62149,0,0-1.62891-10.06735-3.42191-27.34685"
              transform="translate(7.55793 9.72236)" style="fill:#355b3f"/>
        <path d="M39.02864,559.13121H234.64893s-1.34911,25.36318-.53965,85.26346c0,0-90.39006-1.34911-166.47961,8.9041Z"
              transform="translate(7.55793 9.72236)" style="fill:#7abc97"/>
        <path d="M73.15388,675.83c-.99194.17444,7.54208,31.84433,13.68748,76.81748,0,0,64.806-7.82142,153.35563-8.38009,0,0-4.46938-35.755-5.58673-81.5662C234.61026,662.70122,154.16141,661.58387,73.15388,675.83Z"
              transform="translate(7.55793 9.72236)" style="fill:#7abc97"/>
        <path d="M141.07343,646.62714c-23.68931,1.33075-49.28721,3.41649-73.44376,6.67163l-28.601-94.16756H127.063s.11153,17.88363,4.93233,46.65289S141.07343,646.62714,141.07343,646.62714Z"
              transform="translate(7.55793 9.72236)" style="fill:#79aa87"/>
        <path d="M181.89831,745.68293c-57.27943,2.40522-95.057,6.96458-95.057,6.96458-6.1454-44.97315-14.67942-76.643-13.68748-76.81748,25.4735-4.47983,50.89176-7.44044,73.77059-9.39433,0,0,3.732,17.5697,15.2397,44.16183S181.89831,745.68293,181.89831,745.68293Z"
              transform="translate(7.55793 9.72236)" style="fill:#79aa87"/>
        <polygon points="115.167 580.473 179.652 579.395 179.652 593.246 117.937 595.709 115.167 580.473"
                 style="fill:#55936f"/>
        <polygon points="136.405 686.664 185.961 682.509 186.115 694.975 138.868 699.592 136.405 686.664"
                 style="fill:#55936f"/>
        <path d="M153.24605,687.726l-21.93624,2.14361-2.46242-12.92769,20.426-1.71274s.62116,2.3758,1.68556,6.03466A59.64251,59.64251,0,0,0,153.24605,687.726Z"
              transform="translate(7.55793 9.72236)" style="fill:#417555"/>
        <path d="M129.05759,585.24112l-18.67832.74527-2.77022-15.23621,20.00589-.33423s.26856,3.921.63509,7.7328S129.05759,585.24112,129.05759,585.24112Z"
              transform="translate(7.55793 9.72236)" style="fill:#417555"/>
        <rect x="158.06027" y="279.79012" width="51.09136" height="51.09136"
              transform="translate(171.95793 -40.71175) rotate(27.92946)" style="fill:#bbffd0"/>
        <rect x="210.16651" y="260.8685" width="51.09136" height="51.09136"
              transform="translate(-39.68651 56.28479) rotate(-10.25972)" style="fill:#bbffd0"/>
        <rect x="283.14572" y="279.38462" width="51.09136" height="51.09136"
              transform="translate(73.61133 -45.06899) rotate(11.35089)" style="fill:#bbffd0"/>
        <path d="M180.61928,332.66584l-31.54877-16.725,23.93039-45.14049,1.52508.80849s-2.16908,8.92323-2.16908,28.54733S180.61928,332.66584,180.61928,332.66584Z"
              transform="translate(7.55793 9.72236)" style="fill:#aae8bb"/>
        <path d="M260.68588,307.85461l-45.561,8.24674-9.0999-50.27443,10.28692-1.862s3.04709,8.526,16.83183,24.41679S260.68588,307.85461,260.68588,307.85461Z"
              transform="translate(7.55793 9.72236)" style="fill:#aae8bb"/>
        <path d="M329.97272,328.71191l-1.26313,6.29223-50.092-10.05565,10.05565-50.092,10.61857,2.13161a39.72726,39.72726,0,0,0,4.403,29.67757C312.59747,321.79058,329.97272,328.71191,329.97272,328.71191Z"
              transform="translate(7.55793 9.72236)" style="fill:#aae8bb"/>
        <path d="M572.17892,299.34749s-3.24387,1.567-2.36843,4.67034c.69923,2.4787,4.4969,1.84373,4.4969,1.84373a4.11359,4.11359,0,0,0,2.24845-1.21416c.71951-.94435-1.12422-4.99157-1.12422-4.99157Z"
              transform="translate(7.55793 9.72236)" style="fill:#3f564c"/>
        <path d="M589.59686,294.12465s-3.28274.49466-3.64249,3.64249a3.37332,3.37332,0,0,0,2.77381,3.7246,5.19918,5.19918,0,0,0,4.42123-1.29628c1.8887-1.84373-2.02361-5.44125-2.02361-5.44125Z"
              transform="translate(7.55793 9.72236)" style="fill:#3f564c"/>
        <path d="M602.96824,294.23426s-3.72739,1.61635-2.354,4.747c1.77667,4.04991,5.76279,1.32835,5.76279,1.32835Z"
              transform="translate(7.55793 9.72236)" style="fill:#3f564c"/>
        <circle cx="581.6947" cy="311.95481" r="3.50302" style="fill:#a5dbc4"/>
        <circle cx="598.51886" cy="307.089" r="3.50302" style="fill:#a5dbc4"/>
        <circle cx="612.37406" cy="306.89657" r="3.50302" style="fill:#a5dbc4"/>
    </g>
    <g id="Books">
        <rect x="1593.55487" y="631.47556" width="21.50056" height="123.1601"
              transform="translate(-63.0025 203.83273) rotate(-6.77534)" style="fill:#447552"/>
        <polygon points="1619.323 671.578 1643.753 664.568 1670.493 757.818 1646.063 764.818 1619.323 671.578"
                 style="fill:#447552"/>
        <path d="M1597.04417,723.0617l3.851,32.41391,21.35-2.54-14.13821-119.00225A487.89516,487.89516,0,0,1,1597.04417,723.0617Z"
              transform="translate(7.55793 9.72236)" style="fill:#366040"/>
        <path d="M1627.48419,716.6665l11.021,38.42911,24.43-7-24.40463-85.10589S1640.48263,689.82658,1627.48419,716.6665Z"
              transform="translate(7.55793 9.72236)" style="fill:#366040"/>
    </g>
    <g id="Dumbbells">
        <rect x="1709.59459" y="709.58532" width="76.31352" height="16.49428" style="fill:#888c89"/>
        <rect x="1858.70286" y="661.86188" width="16.49428" height="74.33421" style="fill:#888c89"/>
        <path d="M1855.05375,726.47373h12.58546V652.13952h-4.44864s.14091,11.59172-1.84409,37.16711S1855.05375,726.47373,1855.05375,726.47373Z"
              transform="translate(7.55793 9.72236)" style="fill:#727c76"/>
        <path d="M1778.35018,702.246v14.11124h-76.31352v-1.18805S1754.10521,711.53156,1778.35018,702.246Z"
              transform="translate(7.55793 9.72236)" style="fill:#727c76"/>
        <polygon
                points="1684.331 673.727 1713.981 673.417 1715.634 717.634 1714.188 761.438 1684.331 761.335 1679.785 717.221 1684.331 673.727"
                style="fill:#727c76"/>
        <polygon
                points="1782.373 717.324 1783.923 761.232 1813.677 761.541 1818.016 717.221 1813.78 673.52 1783.716 673.727 1782.373 717.324"
                style="fill:#727c76"/>
        <rect x="1823.50004" y="633.73629" width="87.82676" height="29.68032" style="fill:#727c76"/>
        <polygon points="1679.785 717.221 1684.331 761.335 1714.188 761.438 1715.634 717.634 1679.785 717.221"
                 style="fill:#656666"/>
        <rect x="1823.50004" y="731.95117" width="87.82676" height="29.68032" style="fill:#727c76"/>
        <polygon points="1782.373 717.324 1783.923 761.232 1813.677 761.541 1818.016 717.221 1782.373 717.324"
                 style="fill:#656666"/>
        <rect x="1867.33995" y="633.73629" width="43.98685" height="29.68032" style="fill:#656666"/>
        <rect x="1867.33995" y="731.95117" width="43.98685" height="29.68032" style="fill:#656666"/>
        <path d="M1707.1497,733.08277" transform="translate(7.55793 9.72236)" style="fill:#7c7572"/>
        <polygon points="1701.716 717.491 1683.546 682.086 1679.785 717.221 1701.716 717.491" style="fill:#647068"/>
        <polyline points="1701.716 717.474 1679.785 717.221 1684.331 761.335 1714.188 761.438 1714.803 742.805"
                  style="fill:#555656"/>
    </g>
    <g id="Mini_Piano" data-name="Mini Piano">
        <rect x="571.45769" y="724.40427" width="5.15353" height="7.79745"
              transform="translate(133.55317 -73.887) rotate(9.35318)" style="fill:#324938"/>
        <rect x="573.34187" y="712.96482" width="5.15353" height="7.79745"
              transform="translate(131.71909 -74.3453) rotate(9.35318)" style="fill:#324938"/>
        <rect x="577.12129" y="690.01888" width="5.15353" height="7.79745"
              transform="translate(128.04017 -75.26459) rotate(9.35318)" style="fill:#324938"/>
        <rect x="578.9448" y="678.94782" width="5.15353" height="7.79745"
              transform="translate(126.26514 -75.70813) rotate(9.35318)" style="fill:#324938"/>
        <rect x="580.82898" y="667.50837" width="5.15353" height="7.79745"
              transform="translate(124.43106 -76.16643) rotate(9.35318)" style="fill:#324938"/>
        <rect x="584.60373" y="644.59077" width="5.15353" height="7.79745"
              transform="translate(120.75668 -77.08459) rotate(9.35318)" style="fill:#324938"/>
        <rect x="586.48791" y="633.15133" width="5.15353" height="7.79745"
              transform="translate(118.92259 -77.54289) rotate(9.35318)" style="fill:#324938"/>
        <rect x="590.26733" y="610.20539" width="5.15353" height="7.79745"
              transform="translate(115.24367 -78.46218) rotate(9.35318)" style="fill:#324938"/>
        <rect x="592.09084" y="599.13432" width="5.15353" height="7.79745"
              transform="translate(113.46865 -78.90572) rotate(9.35318)" style="fill:#324938"/>
        <rect x="593.97502" y="587.69488" width="5.15353" height="7.79745"
              transform="translate(111.63456 -79.36402) rotate(9.35318)" style="fill:#324938"/>
        <rect x="574.6994" y="724.58321" width="24.31034" height="19.90622"
              transform="translate(134.73665 -75.88765) rotate(9.35318)" style="fill:#d6e5e2"/>
        <rect x="578.1376" y="703.70891" width="24.31034" height="19.90622"
              transform="translate(131.38988 -76.72394) rotate(9.35318)" style="fill:#d6e5e2"/>
        <rect x="581.93771" y="680.63731" width="24.31034" height="19.90622"
              transform="translate(127.69081 -77.64827) rotate(9.35318)" style="fill:#d6e5e2"/>
        <rect x="585.69258" y="657.84037" width="24.31034" height="19.90622"
              transform="translate(124.03577 -78.56159) rotate(9.35318)" style="fill:#d6e5e2"/>
        <rect x="589.58317" y="634.21945" width="24.31034" height="19.90622"
              transform="translate(120.24863 -79.50792) rotate(9.35318)" style="fill:#d6e5e2"/>
        <rect x="593.15708" y="612.52116" width="24.31034" height="19.90622"
              transform="translate(116.76975 -80.37722) rotate(9.35318)" style="fill:#d6e5e2"/>
        <rect x="597.00244" y="589.1749" width="24.31034" height="19.90622"
              transform="translate(113.02664 -81.31255) rotate(9.35318)" style="fill:#d6e5e2"/>
        <rect x="600.57635" y="567.47661" width="24.31034" height="19.90622"
              transform="translate(109.54775 -82.18185) rotate(9.35318)" style="fill:#d6e5e2"/>
        <rect x="576.28416" y="719.18872" width="24.31034" height="11.45208"
              transform="translate(133.19403 -76.27312) rotate(9.35318)" style="fill:#d1dbd9"/>
        <rect x="580.04644" y="696.34681" width="24.31034" height="11.45208"
              transform="translate(129.53178 -77.18824) rotate(9.35318)" style="fill:#d1dbd9"/>
        <rect x="583.74369" y="673.52955" width="24.31034" height="11.45208"
              transform="translate(125.87268 -78.09247) rotate(9.35318)" style="fill:#d1dbd9"/>
        <rect x="587.49836" y="650.73383" width="24.31034" height="11.45208"
              transform="translate(122.21785 -79.00574) rotate(9.35318)" style="fill:#d1dbd9"/>
        <rect x="591.24325" y="627.99747" width="24.31034" height="11.45208"
              transform="translate(118.57253 -79.91663) rotate(9.35318)" style="fill:#d1dbd9"/>
        <rect x="595.02726" y="605.02366" width="24.31034" height="11.45208"
              transform="translate(114.88913 -80.83704) rotate(9.35318)" style="fill:#d1dbd9"/>
        <rect x="598.77215" y="582.2873" width="24.31034" height="11.45208"
              transform="translate(111.24381 -81.74793) rotate(9.35318)" style="fill:#d1dbd9"/>
        <rect x="574.78544" y="722.91255" width="3.85203" height="19.90622"
              transform="translate(134.33029 -74.26141) rotate(9.35318)" style="fill:#c3d8d4"/>
        <rect x="578.22363" y="702.03824" width="3.85203" height="19.90622"
              transform="translate(130.98351 -75.0977) rotate(9.35318)" style="fill:#c3d8d4"/>
        <rect x="582.02374" y="678.96664" width="3.85203" height="19.90622"
              transform="translate(127.28444 -76.02202) rotate(9.35318)" style="fill:#c3d8d4"/>
        <rect x="585.77862" y="656.16971" width="3.85203" height="19.90622"
              transform="translate(123.62941 -76.93534) rotate(9.35318)" style="fill:#c3d8d4"/>
        <rect x="589.66921" y="632.54878" width="3.85203" height="19.90622"
              transform="translate(119.84227 -77.88167) rotate(9.35318)" style="fill:#c3d8d4"/>
        <rect x="593.24312" y="610.85049" width="3.85203" height="19.90622"
              transform="translate(116.36338 -78.75098) rotate(9.35318)" style="fill:#c3d8d4"/>
        <rect x="597.08847" y="587.50423" width="3.85203" height="19.90622"
              transform="translate(112.62027 -79.6863) rotate(9.35318)" style="fill:#c3d8d4"/>
        <rect x="600.66239" y="565.80594" width="3.85203" height="19.90622"
              transform="translate(109.14139 -80.55561) rotate(9.35318)" style="fill:#c3d8d4"/>
        <rect x="576.3702" y="717.51805" width="3.85203" height="11.45208"
              transform="translate(132.78766 -74.64688) rotate(9.35318)" style="fill:#bcc9c5"/>
        <rect x="580.13248" y="694.67614" width="3.85203" height="11.45208"
              transform="translate(129.12542 -75.562) rotate(9.35318)" style="fill:#bcc9c5"/>
        <rect x="583.87968" y="671.86711" width="3.85203" height="11.45208"
              transform="translate(125.46832 -76.47423) rotate(9.35318)" style="fill:#bcc9c5"/>
        <rect x="587.63435" y="649.07139" width="3.85203" height="11.45208"
              transform="translate(121.81348 -77.3875) rotate(9.35318)" style="fill:#bcc9c5"/>
        <rect x="591.37925" y="626.33503" width="3.85203" height="11.45208"
              transform="translate(118.16816 -78.2984) rotate(9.35318)" style="fill:#bcc9c5"/>
        <rect x="595.16325" y="603.36122" width="3.85203" height="11.45208"
              transform="matrix(0.98671, 0.16252, -0.16252, 0.98671, 114.48477, -79.2188)" style="fill:#bcc9c5"/>
        <rect x="598.90815" y="580.62486" width="3.85203" height="11.45208"
              transform="matrix(0.98671, 0.16252, -0.16252, 0.98671, 110.83945, -80.12969)" style="fill:#bcc9c5"/>
        <path d="M596.07325,567.758" transform="translate(7.55793 9.72236)" style="fill:#a37679"/>
        <polygon
                points="603.631 577.48 606.359 560.917 645.671 567.392 611.917 772.32 572.606 765.845 575.416 748.784 601.883 753.143 630.058 582.081 603.631 577.48"
                style="fill:#75aa75"/>
    </g>
    <g id="Tools">
        <path d="M610.23785,276.14613s-.59336,2.43275-4.98418.65269l-.47468,11.2144s4.39082-2.43276,5.51819.83069L615.578,282.495Z"
              transform="translate(7.55793 9.72236)" style="fill:#94b2a7"/>
        <path d="M581.42,304.29a7.49557,7.49557,0,0,1-3.39,6.27v48.23c12.39,11-3.61,18-3.61,18,3-5,3-6,3-7s0-3-5-5-6,9-6,9c-6.9-12.82,3-15,3.39-15V310.56a7.49874,7.49874,0,1,1,11.61-6.27Zm-2,0a5.5,5.5,0,1,0-5.5,5.5A5.49689,5.49689,0,0,0,579.42,304.29Z"
              transform="translate(7.55793 9.72236)" style="fill:#c7e2d9"/>
        <path d="M578.02515,344.11566v14.67c12.39,11-3.61,18-3.61,18,3-5,3-6,3-7s0-3-5-5-6,9-6,9c-6.9-12.82,3-15,3.39-15v-39.6803a60.62014,60.62014,0,0,0,1.90771,9.163C573.29009,334.01388,578.02515,344.11566,578.02515,344.11566Z"
              transform="translate(7.55793 9.72236)" style="fill:#b4d6cc"/>
        <path d="M595.05845,345.804V295.76559l-8.05116-11.514s-5.28087-5.97344-21.12347,2.33743c0,0,8.8303-14.28431,25.62519-11.514,0,0,21.90261-7.272,15.92917,12.03345,0,0-.25971,1.90458-6.83915,8.65716v51.5101Z"
              transform="translate(7.55793 9.72236)" style="fill:#b4d6cc"/>
        <path d="M595.05845,317.23641V303.09688l5.54058,4.40528v24.86852S598.972,331.94436,595.05845,317.23641Z"
              transform="translate(7.55793 9.72236)" style="fill:#c7e2d9"/>
        <path d="M595.05845,295.76559l-8.05116-11.514s2.90034-5.271,4.50172-9.17659C591.509,275.075,594.0273,281.908,595.05845,295.76559Z"
              transform="translate(7.55793 9.72236)" style="fill:#94b2a7"/>
        <path d="M610.23785,276.14613h13.4098s2.8031,6.30291,0,12.69778H610.29718S612.84861,282.25768,610.23785,276.14613Z"
              transform="translate(7.55793 9.72236)" style="fill:#b4d6cc"/>
        <polygon
                points="602.616 355.526 608.296 355.526 609.613 360.112 609.613 390.21 601.291 390.21 601.291 360.043 602.616 355.526"
                style="fill:#3e8456"/>
        <path d="M602.05543,368.9137v11.57373h-8.322v-26.867a64.23478,64.23478,0,0,0,3.28068,8.02076C598.41076,364.08532,602.05543,368.9137,602.05543,368.9137Z"
              transform="translate(7.55793 9.72236)" style="fill:#326842"/>
    </g>
    <g id="Curling_Stone" data-name="Curling Stone">
        <path d="M480.93024,694.80606h45.112s4.62687.43377,4.62687-5.34982-5.20523-5.639-5.20523-5.639H480.49647s-17.78455,1.59049-17.35078,22.556h12.14555S475.86959,694.80606,480.93024,694.80606Z"
              transform="translate(7.55793 9.72236)" style="fill:#5e9985"/>
        <rect x="447.06556" y="714.7566" width="113.91809" height="54.00561" rx="15.88707" style="fill:#89ad9f"/>
        <rect x="447.3173" y="731.42239" width="113.91809" height="20.67402" style="fill:#9bc6b7"/>
        <path d="M547.09567,755.845a15.8169,15.8169,0,0,1-9.557,3.1949H455.3947a15.88707,15.88707,0,0,1-15.88707-15.88707V720.92131a15.89323,15.89323,0,0,1,12.313-15.48343s2.825,11.83631,27.4954,26.52108C506.06378,747.88024,547.09567,755.845,547.09567,755.845Z"
              transform="translate(7.55793 9.72236)" style="fill:#80a093"/>
        <path d="M501.46905,742.37406H439.50763V721.7h25.45928a136.548,136.548,0,0,0,16.78259,11.26588A203.77585,203.77585,0,0,0,501.46905,742.37406Z"
              transform="translate(7.55793 9.72236)" style="fill:#91b7a9"/>
    </g>
    <g id="Clock">
        <polygon points="1521.764 561.34 1541.253 561.97 1544.233 554.261 1527.997 547.951 1521.764 561.34"
                 style="fill:#4c7254"/>
        <polygon points="1568.235 557.764 1570.516 563.155 1590.765 564.191 1583.578 549.056 1568.235 557.764"
                 style="fill:#426347"/>
        <circle cx="1555.22955" cy="509.19773" r="51.95396" style="fill:#4e8763"/>
        <circle cx="1555.22955" cy="509.19773" r="48.37571" style="fill:#a2f4da"/>
        <circle cx="1555.22955" cy="509.19773" r="41.00975" style="fill:#d2f9ec"/>
        <circle cx="1555.22955" cy="509.19773" r="23.33749" style="fill:#c2efe0"/>
        <path d="M1540.70209,547.35275a48.38653,48.38653,0,0,0,22.55018-93.68924,154.726,154.726,0,0,1-2.39948,47.65977C1555.42458,526.1678,1540.70209,547.35275,1540.70209,547.35275Z"
              transform="translate(7.55793 9.72236)" style="fill:#96e2c8"/>
        <path d="M1545.06272,540.41073c.79368.04577,1.80375.07439,2.6089.07439a41.02857,41.02857,0,0,0,16.245-78.696s.34973,21.04008-5.16184,40.60074A324.44043,324.44043,0,0,1,1545.06272,540.41073Z"
              transform="translate(7.55793 9.72236)" style="fill:#caeade"/>
        <path d="M1552.29092,522.35575a23.3416,23.3416,0,0,0,10.45207-40.69934s-1.36156,9.82224-3.33061,18.04592S1552.29092,522.35575,1552.29092,522.35575Z"
              transform="translate(7.55793 9.72236)" style="fill:#b8e0d2"/>
    </g>
    <g id="Blender_Globe_Background" data-name="Blender+Globe Background">
        <polygon points="143.924 20.749 139.545 21.926 133.289 34.363 137.041 44.078 146.597 45.275 143.924 20.749"
                 style="fill:#5e9976"/>
        <circle cx="171.98842" cy="122.57316" r="73.35388" style="fill:#8ac4a7"/>
        <polygon points="189.605 204.978 199.903 204.978 196.867 211.59 192.28 211.59 189.605 204.978"
                 style="fill:#5e9976"/>
        <polygon points="196.867 211.59 202.683 204.437 213.746 209.586 217.084 227.712 195.329 223.181 196.867 211.59"
                 style="fill:#56a87d"/>
        <polygon points="190.556 213.44 192.549 209.586 196.867 211.59 195.329 218.428 190.556 213.44"
                 style="fill:#4d936c"/>
        <polygon points="503.754 194.826 480.193 199.204 469.841 203.783 480.655 204.432 503.754 194.826"
                 style="fill:#4d936c"/>
    </g>
    <g id="Globe">
        <path d="M248.19111,216.03168l-38.66,1.96a176.79486,176.79486,0,0,1-20.53-16.04,66.494,66.494,0,0,1,17.19-2.08C219.22111,200.02168,233.63111,204.25168,248.19111,216.03168Z"
              transform="translate(7.55793 9.72236)" style="fill:#56a87d"/>
        <path d="M227.02111,137.94168c9.54-14.6,12.9-31.68,7.89-47.69a73.52192,73.52192,0,0,1-35.36,87.09c-.58.31-1.17.61-1.76.91-.02-.01-.03,0-.04.02a68.612,68.612,0,0,1-7.01,3.04l1.17-.48C209.71111,173.45168,222.14111,157.37168,227.02111,137.94168Z"
              transform="translate(7.55793 9.72236)" style="fill:#86bc9f"/>
        <path d="M234.91111,90.25168c5.01,16.01,1.65,33.09-7.89,47.69a78.58212,78.58212,0,0,0,1.66-29.11c5.38-6.82,7.66-13.53,5.97-19.35C234.74111,89.74168,234.82111,89.99168,234.91111,90.25168Z"
              transform="translate(7.55793 9.72236)" style="fill:#86bc9f"/>
        <path d="M234.65111,89.48168c1.69,5.82-.59,12.53-5.97,19.35a84.59028,84.59028,0,0,0-3.75-16.39l9.63-3.25C234.59111,89.29168,234.62111,89.38168,234.65111,89.48168Z"
              transform="translate(7.55793 9.72236)" style="fill:#86bc9f"/>
        <path d="M234.51111,89.04168c.02.05.03.1.05.15l-9.63,3.25a.983.983,0,0,0-.05-.16,85.03717,85.03717,0,0,0-7.1-15.66c8.57,2.2,14.53,6.27,16.61,12.09l.03.06Z"
              transform="translate(7.55793 9.72236)" style="fill:#86bc9f"/>
        <path d="M234.17111,88.07168c.08.21.15.43.22.64-2.08-5.82-8.04-9.89-16.61-12.09a78.83156,78.83156,0,0,0-18.2-21.45C215.73111,61.06168,228.51111,72.51168,234.17111,88.07168Z"
              transform="translate(7.55793 9.72236)" style="fill:#86bc9f"/>
        <path d="M228.68111,108.83168a78.58212,78.58212,0,0,1-1.66,29.11,74.46833,74.46833,0,0,1-11.15,13.31,82.84688,82.84688,0,0,0,2.84-32.45A65.10717,65.10717,0,0,0,228.68111,108.83168Z"
              transform="translate(7.55793 9.72236)" style="fill:#88bfa3"/>
        <path d="M224.93111,92.44168a84.59028,84.59028,0,0,1,3.75,16.39,65.10717,65.10717,0,0,1-9.97,9.97,102.8327,102.8327,0,0,0-4.9-22.61Z"
              transform="translate(7.55793 9.72236)" style="fill:#8ac4a7"/>
        <path d="M224.88111,92.28168a.983.983,0,0,1,.05.16l-11.12,3.75c-.02-.05-.03-.1-.05-.15a103.46728,103.46728,0,0,0-9.96-21.3,66.11862,66.11862,0,0,1,13.98,1.88A85.03717,85.03717,0,0,1,224.88111,92.28168Z"
              transform="translate(7.55793 9.72236)" style="fill:#88bfa3"/>
        <path d="M218.71111,118.80168a82.84688,82.84688,0,0,1-2.84,32.45,81.75125,81.75125,0,0,1-10.98,8.73c2.33-9.09,2.82-20.25,1.33-32.39A108.094,108.094,0,0,0,218.71111,118.80168Z"
              transform="translate(7.55793 9.72236)" style="fill:#86bc9f"/>
        <path d="M215.87111,151.25168a74.46833,74.46833,0,0,0,11.15-13.31c-4.88,19.43-17.31,35.51-35.11,42.89C203.36111,175.80168,211.61111,165.05168,215.87111,151.25168Z"
              transform="translate(7.55793 9.72236)" style="fill:#8ac4a7"/>
        <path d="M213.81111,96.19168a102.8327,102.8327,0,0,1,4.9,22.61,108.094,108.094,0,0,1-12.49,8.79,135.85172,135.85172,0,0,0-6.16-26.76Z"
              transform="translate(7.55793 9.72236)" style="fill:#86bc9f"/>
        <path d="M213.76111,96.04168c.02.05.03.1.05.15l-13.75,4.64a.983.983,0,0,0-.05-.16,136.92557,136.92557,0,0,0-11.45-25.35,104.18113,104.18113,0,0,1,15.24-.58A103.46728,103.46728,0,0,1,213.76111,96.04168Z"
              transform="translate(7.55793 9.72236)" style="fill:#86bc9f"/>
        <path d="M209.53111,217.99168l-56.12,2.85a89.48227,89.48227,0,0,1,29.59-17.12c1.93-.66,3.93-1.26,6-1.77A176.79486,176.79486,0,0,0,209.53111,217.99168Z"
              transform="translate(7.55793 9.72236)" style="fill:#4d936c"/>
        <path d="M206.22111,127.59168c1.49,12.14,1,23.3-1.33,32.39a83.79177,83.79177,0,0,1-8.81,5.13c.57-8.18-.32-18.75-2.63-30.64A144.02019,144.02019,0,0,0,206.22111,127.59168Z"
              transform="translate(7.55793 9.72236)" style="fill:#88bfa3"/>
        <path d="M206.19111,199.86168v.01a66.494,66.494,0,0,0-17.19,2.08q-3.72-3.39-7.13-6.89c-1.65-8.62-3.95-10.19-3.95-10.19a74.327,74.327,0,0,0,9.19-2.29c.07-.03.13-.04.2-.07.2-.06.41-.12.61-.19a1.458,1.458,0,0,0,.19-.07c.02-.01.05-.02.07-.03a.18539.18539,0,0,0,.07-.02c.03-.01.07-.02.1-.03.02-.01.05-.02.07-.03.1-.03.2-.07.3-.1.02-.01.04-.01.06-.02.06-.02.13-.04.19-.06.51-.17,1.01-.35,1.51-.55a2.77288,2.77288,0,0,0,.26-.1,68.612,68.612,0,0,0,7.01-3.04C197.51111,178.72168,199.30111,187.23168,206.19111,199.86168Z"
              transform="translate(7.55793 9.72236)" style="fill:#5e9976"/>
        <path d="M204.89111,159.98168a81.75125,81.75125,0,0,0,10.98-8.73c-4.26,13.8-12.51,24.55-23.96,29.58l-1.17.48c-.3.11-.61.23-.93.35-.27.09-.55.19-.84.29l-.01-.02C196.71111,178.82168,202.11111,170.88168,204.89111,159.98168Z"
              transform="translate(7.55793 9.72236)" style="fill:#86bc9f"/>
        <path d="M217.78111,76.62168a66.11862,66.11862,0,0,0-13.98-1.88,83.04972,83.04972,0,0,0-21.31-23.56,74.36321,74.36321,0,0,1,17.09,3.99A78.83156,78.83156,0,0,1,217.78111,76.62168Z"
              transform="translate(7.55793 9.72236)" style="fill:#8ac4a7"/>
        <path d="M203.80111,74.74168a104.18113,104.18113,0,0,0-15.24.58c-6.04-10.3-13.02-18.71-20.2-24.5a81.82192,81.82192,0,0,1,14.13.36A83.04972,83.04972,0,0,1,203.80111,74.74168Z"
              transform="translate(7.55793 9.72236)" style="fill:#86bc9f"/>
        <path d="M200.06111,100.83168a135.85172,135.85172,0,0,1,6.16,26.76,144.02019,144.02019,0,0,1-12.77,6.88,229.28237,229.28237,0,0,0-7.72-28.81Z"
              transform="translate(7.55793 9.72236)" style="fill:#8ac4a7"/>
        <path d="M200.01111,100.67168a.983.983,0,0,1,.05.16l-14.33,4.83c-.02-.05-.03-.1-.05-.15a227.51209,227.51209,0,0,0-11.45-27.93,140.27619,140.27619,0,0,1,14.33-2.26A136.92557,136.92557,0,0,1,200.01111,100.67168Z"
              transform="translate(7.55793 9.72236)" style="fill:#88bfa3"/>
        <path d="M234.17111,88.07168c-5.66-15.56-18.44-27.01-34.59-32.9-16.11-13.16-36.57-18.6-55.84-13.04q2.85-.855,5.7-1.47A73.49664,73.49664,0,0,1,234.17111,88.07168Z"
              transform="translate(7.55793 9.72236)" style="fill:#86bc9f"/>
        <path d="M196.08111,165.11168a83.79177,83.79177,0,0,0,8.81-5.13c-2.78,10.9-8.18,18.84-15.93,21.95v-.01C193.10111,180.07168,195.45111,174.00168,196.08111,165.11168Z"
              transform="translate(7.55793 9.72236)" style="fill:#8ac4a7"/>
        <path d="M193.45111,134.47168c2.31,11.89,3.2,22.46,2.63,30.64a86.84862,86.84862,0,0,1-11.25,4.75l-9.58-28.01A169.64478,169.64478,0,0,0,193.45111,134.47168Z"
              transform="translate(7.55793 9.72236)" style="fill:#86bc9f"/>
        <path d="M196.08111,165.11168c-.63,8.89-2.98,14.96-7.12,16.81l-4.13-12.06A86.84862,86.84862,0,0,0,196.08111,165.11168Z"
              transform="translate(7.55793 9.72236)" style="fill:#86bc9f"/>
        <path d="M188.96111,181.92168v.01a2.9038,2.9038,0,0,1-.41.16.32585.32585,0,0,1-.13.04c-.2.07-.41.14-.61.2a.06012.06012,0,0,0-.04.01c-4.42,1.06-9.99-2.34-15.89-9.06a90.0659,90.0659,0,0,0,12.39-3.22c.19-.06.38-.13.56-.2Z"
              transform="translate(7.55793 9.72236)" style="fill:#8ac4a7"/>
        <path d="M186.88111,182.64168c.08-.02.15-.04.23-.06a74.327,74.327,0,0,1-9.19,2.29q-2.34.42-4.68.69c-.14-.18-.3-.36-.45-.55A54.91872,54.91872,0,0,0,186.88111,182.64168Z"
              transform="translate(7.55793 9.72236)" style="fill:#8ac4a7"/>
        <path d="M171.88111,173.28168c5.9,6.72,11.47,10.12,15.89,9.06-1,.3-2.01.55-3.02.76a.29585.29585,0,0,1-.1.02c-5.04.78-10.44-.37-15.89-3.15q-2.175-2.82-4.18-5.67C167.00111,174.07168,169.44111,173.73168,171.88111,173.28168Z"
              transform="translate(7.55793 9.72236)" style="fill:#86bc9f"/>
        <path d="M185.73111,105.66168a229.28237,229.28237,0,0,1,7.72,28.81,169.64478,169.64478,0,0,1-18.2,7.38l-10.02-29.28Z"
              transform="translate(7.55793 9.72236)" style="fill:#86bc9f"/>
        <path d="M185.68111,105.51168c.02.05.03.1.05.15l-20.5,6.91-10.19-29.76a169.75713,169.75713,0,0,1,19.19-5.23A227.51209,227.51209,0,0,1,185.68111,105.51168Z"
              transform="translate(7.55793 9.72236)" style="fill:#86bc9f"/>
        <path d="M184.75111,183.10168a19.22012,19.22012,0,0,0,2.13-.46,54.91872,54.91872,0,0,1-14.09,2.37c-.44-.53-.87-1.06-1.3-1.59a37.74277,37.74277,0,0,0,13.16-.3A.29585.29585,0,0,0,184.75111,183.10168Z"
              transform="translate(7.55793 9.72236)" style="fill:#86bc9f"/>
        <path d="M175.25111,141.85168l9.58,28.01c-.18.07-.37.14-.56.2a90.0659,90.0659,0,0,1-12.39,3.22c-5.42-6.16-11.11-15.12-16.47-25.99a165.32159,165.32159,0,0,0,19.4-5.29C174.96111,141.95168,175.10111,141.90168,175.25111,141.85168Z"
              transform="translate(7.55793 9.72236)" style="fill:#88bfa3"/>
        <path d="M189.00111,201.95168c-2.07.51-4.07,1.11-6,1.77-.11-1.32-.24-2.55-.37-3.69-.18-1.45-.38-2.77-.58-3.96-.06-.35-.12-.68-.18-1.01Q185.27611,198.57168,189.00111,201.95168Z"
              transform="translate(7.55793 9.72236)" style="fill:#58876b"/>
        <path d="M182.63111,200.03168h-.01a89.51851,89.51851,0,0,1-54.47-169.46c.48,1.29.93,2.56,1.33,3.78a85.53041,85.53041,0,0,0,52.57,161.72C182.25111,197.26168,182.45111,198.58168,182.63111,200.03168Z"
              transform="translate(7.55793 9.72236)" style="fill:#58876b"/>
        <path d="M199.58111,55.17168a74.36321,74.36321,0,0,0-17.09-3.99c-12.3-8.96-26.07-12.62-38.75-9.05C163.01111,36.57168,183.47111,42.01168,199.58111,55.17168Z"
              transform="translate(7.55793 9.72236)" style="fill:#88bfa3"/>
        <path d="M168.76111,179.97168c5.45,2.78,10.85,3.93,15.89,3.15a37.74277,37.74277,0,0,1-13.16.3Q170.09611,181.71168,168.76111,179.97168Z"
              transform="translate(7.55793 9.72236)" style="fill:#8ac4a7"/>
        <path d="M188.56111,75.32168a140.27619,140.27619,0,0,0-14.33,2.26c-5.25-10.62-10.81-19.4-16.12-25.52a88.67647,88.67647,0,0,1,10.25-1.24C175.54111,56.61168,182.52111,65.02168,188.56111,75.32168Z"
              transform="translate(7.55793 9.72236)" style="fill:#8ac4a7"/>
        <path d="M175.25111,141.85168c-.15.05-.29.1-.44.15a165.32159,165.32159,0,0,1-19.4,5.29,230.0571,230.0571,0,0,1-11.31-27.59l21.13-7.13Z"
              transform="translate(7.55793 9.72236)" style="fill:#8ac4a7"/>
        <path d="M182.49111,51.18168a81.82192,81.82192,0,0,0-14.13-.36c-8.93-7.2-18.18-10.36-26.34-8.12-.1.02-.2.05-.3.08l-.21.06c.38-.13.77-.26,1.15-.38.36-.12.72-.22,1.08-.33C156.42111,38.56168,170.19111,42.22168,182.49111,51.18168Z"
              transform="translate(7.55793 9.72236)" style="fill:#86bc9f"/>
        <path d="M172.79111,185.01168c.15.19.31.37.45.55a73.51689,73.51689,0,0,1-77.44-47.91c5.82,15.63,18.85,27.07,35.24,32.83C143.33111,180.24168,158.04111,185.56168,172.79111,185.01168Z"
              transform="translate(7.55793 9.72236)" style="fill:#85ba9e"/>
        <path d="M171.49111,183.42168c.43.53.86,1.06,1.3,1.59-14.75.55-29.46-4.77-41.75-14.53a75.33859,75.33859,0,0,0,18.8,3.95A51.81055,51.81055,0,0,0,171.49111,183.42168Z"
              transform="translate(7.55793 9.72236)" style="fill:#83b79a"/>
        <path d="M168.76111,179.97168q1.335,1.74,2.73,3.45a51.81055,51.81055,0,0,1-21.65-8.99,79.94272,79.94272,0,0,0,10.74.16A47.69428,47.69428,0,0,0,168.76111,179.97168Z"
              transform="translate(7.55793 9.72236)" style="fill:#85ba9e"/>
        <path d="M165.23111,112.57168l-21.13,7.13a.983.983,0,0,0-.05-.16,227.02373,227.02373,0,0,1-7.8-29.15,166.72212,166.72212,0,0,1,18.61-7.52l.18-.06Z"
              transform="translate(7.55793 9.72236)" style="fill:#88bfa3"/>
        <path d="M171.88111,173.28168c-2.44.45-4.88.79-7.3,1.02a176.41358,176.41358,0,0,1-15.11-25.9c1.95-.31,3.94-.68,5.94-1.11C160.77111,158.16168,166.46111,167.12168,171.88111,173.28168Z"
              transform="translate(7.55793 9.72236)" style="fill:#86bc9f"/>
        <path d="M164.58111,174.30168q2.01,2.85,4.18,5.67a47.69428,47.69428,0,0,1-8.18-5.38C161.91111,174.53168,163.24111,174.43168,164.58111,174.30168Z"
              transform="translate(7.55793 9.72236)" style="fill:#83b79a"/>
        <path d="M164.58111,174.30168c-1.34.13-2.67.23-4,.29-7.29-5.86-14.38-14.42-20.49-24.94,3.04-.29,6.17-.7,9.38-1.25A176.41358,176.41358,0,0,0,164.58111,174.30168Z"
              transform="translate(7.55793 9.72236)" style="fill:#80b295"/>
        <path d="M168.36111,50.82168a88.67647,88.67647,0,0,0-10.25,1.24c-5.97-6.88-11.61-10.39-16.09-9.36C150.18111,40.46168,159.43111,43.62168,168.36111,50.82168Z"
              transform="translate(7.55793 9.72236)" style="fill:#88bfa3"/>
        <path d="M158.11111,52.06168c5.31,6.12,10.87,14.9,16.12,25.52a169.75713,169.75713,0,0,0-19.19,5.23l-9.41-27.52A89.87567,89.87567,0,0,1,158.11111,52.06168Z"
              transform="translate(7.55793 9.72236)" style="fill:#86bc9f"/>
        <path d="M160.58111,174.59168a79.94272,79.94272,0,0,1-10.74-.16,82.036,82.036,0,0,1-22.52-24.26,106.67589,106.67589,0,0,0,12.77-.52C146.20111,160.17168,153.29111,168.73168,160.58111,174.59168Z"
              transform="translate(7.55793 9.72236)" style="fill:#83b599"/>
        <path d="M145.63111,55.29168l9.41,27.52-.18.06a166.72212,166.72212,0,0,0-18.61,7.52c-2.26-11.62-3.14-21.98-2.63-30.06a88.39355,88.39355,0,0,1,11.95-5.02C145.59111,55.30168,145.61111,55.30168,145.63111,55.29168Z"
              transform="translate(7.55793 9.72236)" style="fill:#8ac4a7"/>
        <path d="M155.41111,147.29168c-2,.43-3.99.8-5.94,1.11a194.99847,194.99847,0,0,1-10.43-26.99l5.06-1.71A230.0571,230.0571,0,0,0,155.41111,147.29168Z"
              transform="translate(7.55793 9.72236)" style="fill:#86bc9f"/>
        <path d="M149.44111,40.65168v.01q-2.85.615-5.7,1.47c-.36.11-.72.21-1.08.33-.26.08-.51.16-.77.24-.16.06-.31.11-.47.16a.07581.07581,0,0,0-.04.02c-.02.01-.04.01-.06.02a.49235.49235,0,0,0-.17.06,1.72327,1.72327,0,0,0-.21.07c-.33.11-.66.23-.99.35-.3.11-.59.22-.88.33q-3.195,1.185-6.2,2.64l-.01-.01a123.283,123.283,0,0,0-3.37-11.97,190.65349,190.65349,0,0,1,2.5-22.17c1.28-.4,2.74-.8,4.38-1.18C136.37111,11.02168,138.52111,22.27168,149.44111,40.65168Z"
              transform="translate(7.55793 9.72236)" style="fill:#5e9976"/>
        <path d="M158.11111,52.06168a89.87567,89.87567,0,0,0-12.48,3.23l-4.25-12.4c.02-.01.03-.01.05-.02.1-.03.19-.06.29-.09.1-.02.2-.05.3-.08C146.50111,41.67168,152.14111,45.18168,158.11111,52.06168Z"
              transform="translate(7.55793 9.72236)" style="fill:#86bc9f"/>
        <path d="M145.63111,55.29168c-.02.01-.04.01-.06.02a88.39355,88.39355,0,0,0-11.95,5.02c.61-9.44,3.13-15.78,7.63-17.4a.64682.64682,0,0,1,.13-.04Z"
              transform="translate(7.55793 9.72236)" style="fill:#88bfa3"/>
        <path d="M144.05111,119.54168a.983.983,0,0,1,.05.16l-5.06,1.71a221.98708,221.98708,0,0,1-6.75-29.07c1.3-.66,2.62-1.32,3.96-1.95A227.02373,227.02373,0,0,0,144.05111,119.54168Z"
              transform="translate(7.55793 9.72236)" style="fill:#86bc9f"/>
        <path d="M139.04111,121.41168a194.99847,194.99847,0,0,0,10.43,26.99c-3.21.55-6.34.96-9.38,1.25a136.60568,136.60568,0,0,1-11.19-24.82Z"
              transform="translate(7.55793 9.72236)" style="fill:#83b79a"/>
        <path d="M141.15111,42.96168c.03-.01.07-.02.1-.03-4.5,1.62-7.02,7.96-7.63,17.4q-2.25,1.125-4.38,2.39c-.14-3.33-.23-6.54-.25-9.63a23.7028,23.7028,0,0,1,9.41-8.99.92919.92919,0,0,0,.1-.05c.84-.38,1.7-.73,2.57-1.06C141.10111,42.98168,141.12111,42.97168,141.15111,42.96168Z"
              transform="translate(7.55793 9.72236)" style="fill:#86bc9f"/>
        <path d="M139.95111,43.38168c.28-.1.55-.2.83-.29a17.69166,17.69166,0,0,0-2.28.96.92919.92919,0,0,1-.1.05,37.24664,37.24664,0,0,0-9.42,6.28c0-.51,0-1.01.01-1.51a55.64,55.64,0,0,1,10.08-5.16C139.36111,43.60168,139.65111,43.49168,139.95111,43.38168Z"
              transform="translate(7.55793 9.72236)" style="fill:#86bc9f"/>
        <path d="M139.04111,121.41168l-10.14,3.42a.983.983,0,0,0-.05-.16,135.849,135.849,0,0,1-6.21-26.89q4.545-2.82,9.65-5.44A221.98708,221.98708,0,0,0,139.04111,121.41168Z"
              transform="translate(7.55793 9.72236)" style="fill:#80b295"/>
        <path d="M133.62111,60.33168c-.51,8.08.37,18.44,2.63,30.06-1.34.63-2.66,1.29-3.96,1.95a252.72615,252.72615,0,0,1-3.05-29.62Q131.37111,61.46168,133.62111,60.33168Z"
              transform="translate(7.55793 9.72236)" style="fill:#86bc9f"/>
        <path d="M132.87111,46.35168q3-1.455,6.2-2.64a55.64,55.64,0,0,0-10.08,5.16v-.51C130.26111,47.65168,131.55111,46.98168,132.87111,46.35168Z"
              transform="translate(7.55793 9.72236)" style="fill:#88bfa3"/>
        <path d="M140.09111,149.65168a106.67589,106.67589,0,0,1-12.77.52,103.65978,103.65978,0,0,1-10.07-21.41l11.65-3.93A136.60568,136.60568,0,0,0,140.09111,149.65168Z"
              transform="translate(7.55793 9.72236)" style="fill:#85ba9e"/>
        <path d="M149.84111,174.43168a75.33859,75.33859,0,0,1-18.8-3.95,79.07458,79.07458,0,0,1-19.08-22.22,67.98442,67.98442,0,0,0,15.36,1.91A82.036,82.036,0,0,0,149.84111,174.43168Z"
              transform="translate(7.55793 9.72236)" style="fill:#80b295"/>
        <path d="M131.99111,12.20168a190.65349,190.65349,0,0,0-2.5,22.17.031.031,0,0,0-.01-.02c-.4-1.22-.85-2.49-1.33-3.78a81.40976,81.40976,0,0,0-5.78-12.55S123.13111,14.97168,131.99111,12.20168Z"
              transform="translate(7.55793 9.72236)" style="fill:#58876b"/>
        <path d="M138.40111,44.10168a23.7028,23.7028,0,0,0-9.41,8.99c-.01-.92-.01-1.82-.01-2.71A37.24664,37.24664,0,0,1,138.40111,44.10168Z"
              transform="translate(7.55793 9.72236)" style="fill:#88bfa3"/>
        <path d="M129.24111,62.72168a252.72615,252.72615,0,0,0,3.05,29.62q-5.1,2.61-9.65,5.44c-1.45-11.78-1.03-22.64,1.12-31.58C125.52111,64.98168,127.35111,63.81168,129.24111,62.72168Z"
              transform="translate(7.55793 9.72236)" style="fill:#83b79a"/>
        <path d="M128.99111,53.09168c.02,3.09.11,6.3.25,9.63-1.89,1.09-3.72,2.26-5.48,3.48A43.82273,43.82273,0,0,1,128.99111,53.09168Z"
              transform="translate(7.55793 9.72236)" style="fill:#80b295"/>
        <path d="M128.99111,48.36168v.51c-13.21,8.59-22.41,22.56-26.35,38.83-9.39,14.52-12.68,31.45-7.74,47.34A73.52677,73.52677,0,0,1,128.99111,48.36168Z"
              transform="translate(7.55793 9.72236)" style="fill:#83b599"/>
        <path d="M128.99111,48.87168c-.01.5-.01,1-.01,1.51-6.2,5.63-10.85,13.42-13.75,22.57a74.82944,74.82944,0,0,0-12.59,14.75C106.58111,71.43168,115.78111,57.46168,128.99111,48.87168Z"
              transform="translate(7.55793 9.72236)" style="fill:#80b295"/>
        <path d="M128.98111,50.38168c0,.89,0,1.79.01,2.71a43.82273,43.82273,0,0,0-5.23,13.11,80.364,80.364,0,0,0-8.53,6.75C118.13111,63.80168,122.78111,56.01168,128.98111,50.38168Z"
              transform="translate(7.55793 9.72236)" style="fill:#83b599"/>
        <path d="M128.85111,124.67168a.983.983,0,0,1,.05.16l-11.65,3.93a.983.983,0,0,0-.05-.16,103.27841,103.27841,0,0,1-5.02-23.52,109.3975,109.3975,0,0,1,10.46-7.3A135.849,135.849,0,0,0,128.85111,124.67168Z"
              transform="translate(7.55793 9.72236)" style="fill:#83b599"/>
        <path d="M123.76111,66.20168c-2.15,8.94-2.57,19.8-1.12,31.58a109.3975,109.3975,0,0,0-10.46,7.3,82.04508,82.04508,0,0,1,3.05-32.13A80.364,80.364,0,0,1,123.76111,66.20168Z"
              transform="translate(7.55793 9.72236)" style="fill:#85ba9e"/>
        <path d="M117.25111,128.76168a103.65978,103.65978,0,0,0,10.07,21.41,67.98442,67.98442,0,0,1-15.36-1.91,84.78422,84.78422,0,0,1-6.96-15.37Z"
              transform="translate(7.55793 9.72236)" style="fill:#83b79a"/>
        <path d="M117.20111,128.60168a.983.983,0,0,1,.05.16l-12.25,4.13c-.02-.05-.04-.11-.06-.16a84.97959,84.97959,0,0,1-3.84-16.84,68.44558,68.44558,0,0,1,11.08-10.81A103.27841,103.27841,0,0,0,117.20111,128.60168Z"
              transform="translate(7.55793 9.72236)" style="fill:#80b295"/>
        <path d="M111.96111,148.26168a79.07458,79.07458,0,0,0,19.08,22.22c-16.39-5.76-29.42-17.2-35.24-32.83a1.80284,1.80284,0,0,1-.08-.21c-.15-.42-.3-.84-.44-1.27C97.38111,142.00168,103.36111,146.06168,111.96111,148.26168Z"
              transform="translate(7.55793 9.72236)" style="fill:#83b599"/>
        <path d="M115.23111,72.95168a82.04508,82.04508,0,0,0-3.05,32.13,68.44558,68.44558,0,0,0-11.08,10.81,78.93913,78.93913,0,0,1,1.54-28.19A74.82944,74.82944,0,0,1,115.23111,72.95168Z"
              transform="translate(7.55793 9.72236)" style="fill:#83b79a"/>
        <path d="M105.00111,132.89168a84.78422,84.78422,0,0,0,6.96,15.37c-8.6-2.2-14.58-6.26-16.68-12.09Z"
              transform="translate(7.55793 9.72236)" style="fill:#85ba9e"/>
        <path d="M105.00111,132.89168l-9.72,3.28c-.02-.05-.04-.11-.06-.16a.56377.56377,0,0,1-.04-.12c-2-5.97.31-12.94,5.92-20a84.97959,84.97959,0,0,0,3.84,16.84C104.96111,132.78168,104.98111,132.84168,105.00111,132.89168Z"
              transform="translate(7.55793 9.72236)" style="fill:#83b599"/>
        <path d="M102.64111,87.70168a78.93913,78.93913,0,0,0-1.54,28.19c-5.61,7.06-7.92,14.03-5.92,20-.1-.28-.19-.57-.28-.85C89.96111,119.15168,93.25111,102.22168,102.64111,87.70168Z"
              transform="translate(7.55793 9.72236)" style="fill:#85ba9e"/>
    </g>
    <g id="Blender">
        <path d="M586.42,86.79s-8,26-10,65c0,0-18.27,9.44-31.64,20.22l.09-.77,1.91-15.77c10.82-9.76,18.82-13.1,18.82-13.1,2.18-18.43,2.82-43.58,2.82-43.58a56.56446,56.56446,0,0,1-13.58-10.08l2.4-19.89S565.42,78.79,586.42,86.79Z"
              transform="translate(7.55793 9.72236)" style="fill:#56a87d"/>
        <path d="M578.42,18.79l-19,32c-57-13-114-8-114-8l-15-16Z" transform="translate(7.55793 9.72236)"
              style="fill:#56a87d"/>
        <path d="M569.73,230.92,454.32,221.1s1.87-9.19,7.97-27.04l33.84-8.94a152.92212,152.92212,0,0,1,46.54,4.36c4.51,1.15,9.12,2.54,13.78,4.23C556.45,193.71,564.05,208.06,569.73,230.92Z"
              transform="translate(7.55793 9.72236)" style="fill:#4d936c"/>
        <path d="M546.78,155.47l-1.91,15.77-2.73.78,5.9-49.04s-46.13-10.48-82.82,2.73l12.48,59.95a154.56982,154.56982,0,0,1,24.71-2.33l-6.21,1.77-.07.02a151.294,151.294,0,0,0-20.06,2.48L445.42,42.79s57-5,114,8l-2.18,18.03-2.4,19.89Z"
              transform="translate(7.55793 9.72236)" style="fill:#b8ffdf"/>
        <path d="M548.04,122.98l-5.9,49.04-39.73,11.31a154.56982,154.56982,0,0,0-24.71,2.33l-12.48-59.95C501.91,112.5,548.04,122.98,548.04,122.98Zm-68.56,30.93-4.11-24.04-4.1,1.25L475.7,155Z"
              transform="translate(7.55793 9.72236)" style="fill:#77ce65"/>
        <path d="M544.87,171.24l-.09.77-2.11,17.47a152.92212,152.92212,0,0,0-46.54-4.36l.07-.02,6.21-1.77a151.583,151.583,0,0,1,37.91,3.78l1.82-15.09Z"
              transform="translate(7.55793 9.72236)" style="fill:#b6ffdc"/>
        <path d="M542.14,172.02l-1.82,15.09a151.583,151.583,0,0,0-37.91-3.78Z" transform="translate(7.55793 9.72236)"
              style="fill:#76bf64"/>
        <path d="M496.13,185.12l-33.84,8.94c.36-1.06.74-2.15,1.13-3.27a99.43235,99.43235,0,0,1,12.65-3.19A151.294,151.294,0,0,1,496.13,185.12Z"
              transform="translate(7.55793 9.72236)" style="fill:#56a87d"/>
        <polygon points="482.928 139.592 487.038 163.632 483.258 164.722 478.828 140.842 482.928 139.592"
                 style="fill:#b8ffdf"/>
    </g>
    <g id="Lighting">
        <g style="opacity:0.18">
            <polygon points="1394.721 7.508 1931.251 7.508 1931.251 910.598 1394.721 7.508" style="fill:#65d181"/>
            <polygon points="1394.721 7.508 1931.251 910.598 1931.511 1935.208 955.691 1935.208 1394.721 7.508"
                     style="fill:#8fffb7"/>
            <polygon points="1394.721 7.508 6.861 1698.438 5.721 1614.518 5.721 1031.118 1394.721 7.508"
                     style="fill:#a6ffce"/>
            <polygon points="1394.721 7.508 5.721 1031.118 5.721 575.968 1394.721 7.508" style="fill:#8fffb7"/>
            <polygon points="1394.721 7.508 5.721 575.968 5.721 4.578 1394.721 7.508" style="fill:#65d181"/>
            <polygon points="1394.721 7.508 183.581 1935.208 217.611 1935.208 0.641 1935.398 1394.721 7.508"
                     style="fill:#a6ffce"/>
        </g>
    </g>
</svg>